<svg width="10" height="10" viewBox="0 0 49 49" fill="none" aria-hidden="true" xmlns="http://www.w3.org/2000/svg">
<path d="M41.3948 30.0125L32.0542 39.4041C31.85 39.6083 31.6288 39.7532 31.3906 39.839C31.1524 39.9234 30.8972 39.9656 30.625 39.9656C30.3528 39.9656 30.0976 39.9234 29.8594 39.839C29.6212 39.7532 29.4 39.6083 29.1959 39.4041L19.7531 29.9614C19.3788 29.5871 19.1828 29.1107 19.1651 28.5322C19.1488 27.9538 19.3448 27.4774 19.7531 27.1031C20.1274 26.6947 20.6038 26.4906 21.1823 26.4906C21.7608 26.4906 22.2542 26.6947 22.6625 27.1031L28.5834 33.0239V14.2916H10.2084C9.62988 14.2916 9.14465 14.0956 8.75265 13.7036C8.36201 13.313 8.16669 12.8284 8.16669 12.25C8.16669 11.6715 8.36201 11.1869 8.75265 10.7963C9.14465 10.4043 9.62988 10.2083 10.2084 10.2083H30.625C31.2035 10.2083 31.688 10.4043 32.0787 10.7963C32.4707 11.1869 32.6667 11.6715 32.6667 12.25V33.0239L38.5365 27.1031C38.9108 26.7288 39.3783 26.5335 39.9391 26.5171C40.5012 26.4994 40.9865 26.6947 41.3948 27.1031C41.8031 27.5114 42.0073 27.996 42.0073 28.5567C42.0073 29.1189 41.8031 29.6041 41.3948 30.0125Z" fill="#27153E"/>
</svg>
