<svg xmlns="http://www.w3.org/2000/svg" xmlns:xlink="http://www.w3.org/1999/xlink" width="35" height="35" viewBox="0 0 35 35">
  <defs>
    <linearGradient id="linear-gradient" x1="0.334" y1="0.053" x2="1" y2="1" gradientUnits="objectBoundingBox">
      <stop offset="0" stop-color="#ffef77"/>
      <stop offset="1" stop-color="#65c99b"/>
    </linearGradient>
  </defs>
  <g id="ic-cheaper" transform="translate(-881 -603)">
    <rect id="Rectangle_72406" data-name="Rectangle 72406" width="35" height="35" rx="5" transform="translate(881 603)" fill="url(#linear-gradient)"/>
    <g id="Layer_2" data-name="Layer 2" transform="translate(887 609)">
      <g id="star">
        <rect id="Rectangle_72404" data-name="Rectangle 72404" width="24" height="24" transform="translate(24) rotate(90)" fill="#fff" opacity="0"/>
        <path id="Path_411946" data-name="Path 411946" d="M17.56,21a1,1,0,0,1-.46-.11L12,18.22,6.9,20.89a1,1,0,0,1-1.45-1.06l1-5.63-4.12-4a.985.985,0,0,1,.56-1.68l5.7-.83L11.1,2.56a1,1,0,0,1,1.8,0l2.54,5.12,5.7.83a.985.985,0,0,1,.56,1.68l-4.12,4,1,5.63A.99.99,0,0,1,17.56,21Z" fill="#fff"/>
      </g>
    </g>
  </g>
</svg>
