<svg xmlns="http://www.w3.org/2000/svg" xmlns:xlink="http://www.w3.org/1999/xlink" width="35" height="35" viewBox="0 0 35 35">
  <defs>
    <linearGradient id="linear-gradient" x1="0.334" y1="0.053" x2="1" y2="1" gradientUnits="objectBoundingBox">
      <stop offset="0" stop-color="#ff777c"/>
      <stop offset="1" stop-color="#9365c9"/>
    </linearGradient>
  </defs>
  <g id="ic-fairer" transform="translate(-1036 -603)">
    <rect id="Rectangle_72407" data-name="Rectangle 72407" width="35" height="35" rx="5" transform="translate(1036 603)" fill="url(#linear-gradient)"/>
    <g id="Layer_2" data-name="Layer 2" transform="translate(1042 609)">
      <g id="bulb">
        <rect id="Rectangle_72403" data-name="Rectangle 72403" width="24" height="24" transform="translate(24 24) rotate(180)" fill="#fff" opacity="0"/>
        <path id="Path_411940" data-name="Path 411940" d="M12,7a5,5,0,0,0-3,9v4a2,2,0,0,0,2,2h2a2,2,0,0,0,2-2V16a5,5,0,0,0-3-9Z" fill="#fff"/>
        <path id="Path_411941" data-name="Path 411941" d="M12,6a1,1,0,0,0,1-1V3a1,1,0,1,0-2,0V5A1,1,0,0,0,12,6Z" fill="#fff"/>
        <path id="Path_411942" data-name="Path 411942" d="M21,11H19a1,1,0,0,0,0,2h2a1,1,0,0,0,0-2Z" fill="#fff"/>
        <path id="Path_411943" data-name="Path 411943" d="M5,11H3a1,1,0,0,0,0,2H5a1,1,0,0,0,0-2Z" fill="#fff"/>
        <path id="Path_411944" data-name="Path 411944" d="M7.66,6.42,6.22,5A1.012,1.012,0,0,0,4.83,6.47L6.27,7.86A1,1,0,1,0,7.66,6.42Z" fill="#fff"/>
        <path id="Path_411945" data-name="Path 411945" d="M19.19,5.05a1,1,0,0,0-1.41,0L16.34,6.42a1.008,1.008,0,0,0,1.41,1.44l1.44-1.39a1,1,0,0,0,0-1.42Z" fill="#fff"/>
      </g>
    </g>
  </g>
</svg>
