<svg width="85" height="76" viewBox="0 0 85 76" fill="none" xmlns="http://www.w3.org/2000/svg">
<path d="M21.25 33.3521H8.50001C6.24567 33.3521 4.08366 32.4741 2.4896 30.9113C0.895546 29.3485 7.62939e-06 27.2289 7.62939e-06 25.0187V8.35207C7.62939e-06 6.14193 0.895546 4.02232 2.4896 2.45951C4.08366 0.896711 6.24567 0.0187378 8.50001 0.0187378H21.25C23.5043 0.0187378 25.6664 0.896711 27.2604 2.45951C28.8545 4.02232 29.75 6.14193 29.75 8.35207V12.5187H55.2075V8.35207C55.2075 6.14193 56.103 4.02232 57.6971 2.45951C59.2912 0.896711 61.4532 0.0187378 63.7075 0.0187378H76.5C81.175 0.0187378 85 3.76874 85 8.35207V25.0187C85 27.2289 84.1045 29.3485 82.5104 30.9113C80.9163 32.4741 78.7543 33.3521 76.5 33.3521H63.75C61.4957 33.3521 59.3337 32.4741 57.7396 30.9113C56.1455 29.3485 55.25 27.2289 55.25 25.0187V20.8521H46.75V50.0604C46.75 56.9354 41.055 62.5187 34.0425 62.5187H29.75V66.6854C29.75 68.8955 28.8545 71.0152 27.2604 72.578C25.6664 74.1408 23.5043 75.0187 21.25 75.0187H8.50001C6.24567 75.0187 4.08366 74.1408 2.4896 72.578C0.895546 71.0152 7.62939e-06 68.8955 7.62939e-06 66.6854V50.0187C7.62939e-06 47.8086 0.895546 45.689 2.4896 44.1262C4.08366 42.5634 6.24567 41.6854 8.50001 41.6854H21.25C23.5043 41.6854 25.6664 42.5634 27.2604 44.1262C28.8545 45.689 29.75 47.8086 29.75 50.0187V54.1854H34.0425C36.3375 54.1854 38.25 52.3104 38.25 50.0604V20.8521H29.75V25.0187C29.75 29.6021 25.925 33.3521 21.25 33.3521Z" fill="url(#paint0_linear_2432_1664)"/>
<defs>
<linearGradient id="paint0_linear_2432_1664" x1="42.5" y1="0.0187335" x2="-68.715" y2="35.6918" gradientUnits="userSpaceOnUse">
<stop stop-color="#FD5A14"/>
<stop offset="0.609375" stop-color="#FFF06B" stop-opacity="0.59"/>
<stop offset="1" stop-color="#060ED0" stop-opacity="0.28"/>
</linearGradient>
</defs>
</svg>
