<svg id="Logo" xmlns="http://www.w3.org/2000/svg" width="120.814" height="34.152" viewBox="0 0 120.814 34.152">
  <path id="Path_411883" data-name="Path 411883" d="M21.237,24.5A2.24,2.24,0,1,0,19,22.264,2.239,2.239,0,0,0,21.237,24.5Z" transform="translate(-4.83 -5.091)" fill="#FFFFFFFF"/>
  <path id="Path_411884" data-name="Path 411884" d="M8.364,28.441,14.678,22.1l-.691-.694L8.364,27.062,7.058,25.75,8.87,23.922,4.95,19.987l1.256-1.261,3.92,3.944,2.647-2.657L9,16.212l1.686-1.693-2.5-2.505L2,18.227l.691.694,5.5-5.526L9.308,14.52,7.622,16.212l3.776,3.8L10.126,21.29l-3.92-3.944-2.63,2.641L7.5,23.922,5.684,25.75Z" transform="translate(-0.508 -3.055)" fill="#FFFFFFFF"/>
  <path id="Path_411885" data-name="Path 411885" d="M.746,23.52A.747.747,0,1,0,0,22.774.746.746,0,0,0,.746,23.52Z" transform="translate(0 -5.6)" fill="#FFFFFFFF"/>
  <path id="Path_411886" data-name="Path 411886" d="M27.407,8.375,21.076,14.7,20.383,14l5.646-5.629-1.31-1.308L22.893,8.881l-3.93-3.925L17.7,6.214l3.939,3.924-2.654,2.65-3.8-3.781L13.5,10.7,11,8.2,17.2,2l.693.692-5.52,5.5L13.5,9.32l1.69-1.688,3.8,3.781,1.276-1.274L16.325,6.214l2.637-2.633,3.93,3.925,1.826-1.815Z" transform="translate(-2.797 -0.509)" fill="#FFFFFFFF"/>
  <path id="Path_411887" data-name="Path 411887" d="M21.746,1.493A.747.747,0,1,0,21,.747.746.746,0,0,0,21.746,1.493Z" transform="translate(-5.339)" fill="#FFFFFFFF"/>
  <path id="Path_411888" data-name="Path 411888" d="M32.314,12.015,26,18.354l.691.694,5.622-5.653,1.307,1.312L31.8,16.534l3.928,3.935-1.256,1.253-3.92-3.935-2.647,2.657,3.776,3.791L30,25.936l2.5,2.505,6.187-6.212-.691-.694-5.5,5.526L31.37,25.936l1.686-1.7-3.776-3.791,1.273-1.278,3.92,3.935,2.63-2.632-3.928-3.935,1.821-1.828Z" transform="translate(-6.61 -3.055)" fill="#FFFFFFFF"/>
  <path id="Path_411889" data-name="Path 411889" d="M44.113,24.234a.76.76,0,0,0,.555-.907.733.733,0,0,0-.893-.547.76.76,0,0,0-.555.907A.733.733,0,0,0,44.113,24.234Z" transform="translate(-10.983 -5.786)" fill="#FFFFFFFF"/>
  <path id="Path_411890" data-name="Path 411890" d="M12,33.354l6.331-6.321.693.692-5.646,5.629,1.31,1.308,1.826-1.823,3.93,3.933L21.7,35.515,17.765,31.59l2.654-2.65,3.787,3.781,1.7-1.688,2.5,2.5-6.2,6.195-.693-.692,5.52-5.5L25.9,32.409l-1.7,1.688-3.787-3.781L19.143,31.59l3.931,3.925-2.629,2.633-3.93-3.933-1.826,1.823Z" transform="translate(-3.051 -6.873)" fill="#FFFFFFFF"/>
  <path id="Path_411891" data-name="Path 411891" d="M24.129,45.266a.747.747,0,1,0-.9-.552A.744.744,0,0,0,24.129,45.266Z" transform="translate(-5.9 -11.134)" fill="#FFFFFFFF"/>
  <path id="Path_411892" data-name="Path 411892" d="M36.113,10.217a.76.76,0,0,0,.555-.907.733.733,0,0,0-.893-.547.76.76,0,0,0-.555.907A.733.733,0,0,0,36.113,10.217Z" transform="translate(-8.949 -2.222)" fill="#FFFFFFFF"/>
  <path id="Path_411893" data-name="Path 411893" d="M10.113,36.248a.76.76,0,0,0,.555-.907.733.733,0,0,0-.893-.547.76.76,0,0,0-.555.907A.733.733,0,0,0,10.113,36.248Z" transform="translate(-2.339 -8.84)" fill="#FFFFFFFF"/>
  <path id="Path_411894" data-name="Path 411894" d="M9.746,10.5A.747.747,0,1,0,9,9.758.746.746,0,0,0,9.746,10.5Z" transform="translate(-2.288 -2.291)" fill="#FFFFFFFF"/>
  <path id="Path_411895" data-name="Path 411895" d="M35.746,37.537A.747.747,0,1,0,35,36.791.746.746,0,0,0,35.746,37.537Z" transform="translate(-8.898 -9.164)" fill="#FFFFFFFF"/>
  <path id="Path_411896" data-name="Path 411896" d="M54.792,12.457H50V9.011H63.424v3.446H58.631V28.425H54.792Z" transform="translate(-12.712 -2.291)" fill="#FFFFFFFF"/>
  <path id="Path_411897" data-name="Path 411897" d="M81.714,9.011,89.39,28.425H85.246l-1.32-3.5H75.464l-1.32,3.5H70L77.649,9.011Zm.927,12.47-2.946-7.8-2.937,7.8Z" transform="translate(-17.797 -2.291)" fill="#FFFFFFFF"/>
  <path id="Path_411898" data-name="Path 411898" d="M101,24.282l3.011-1.412a3.941,3.941,0,0,0,3.713,2.867c1.514,0,2.817-.8,2.817-2.514,0-1.438-.837-2.066-2.791-2.866l-1.218-.473c-2.631-1.076-4.8-2.565-4.8-5.544,0-3.28,2.681-5.328,5.938-5.328a6.587,6.587,0,0,1,6.183,4.14l-2.766,1.575c-.812-1.575-1.869-2.341-3.282-2.341s-2.41.689-2.41,1.989c0,1.024.567,1.825,2.681,2.651l1.3.525c3.358,1.377,5.041,2.927,5.041,5.716,0,3.977-3.417,5.905-6.64,5.905A6.82,6.82,0,0,1,101,24.282Z" transform="translate(-25.678 -2.291)" fill="#FFFFFFFF"/>
  <path id="Path_411899" data-name="Path 411899" d="M138.871,20.466H130.79v7.958H127V9.011h3.79V17.02h8.081V9.011h3.79V28.425h-3.79Z" transform="translate(-32.288 -2.291)" fill="#FFFFFFFF"/>
  <path id="Path_411900" data-name="Path 411900" d="M157,9.011h3.729V28.425H157Z" transform="translate(-39.915 -2.291)" fill="#FFFFFFFF"/>
</svg>
