<svg width="70" height="71" viewBox="0 0 70 71" fill="none" xmlns="http://www.w3.org/2000/svg">
<g clip-path="url(#clip0_2435_878)">
<path d="M49.6772 19.9646H51.9353V22.2227H49.6772V19.9646Z" fill="#8593E8"/>
<path d="M4.51651 47.0613H6.77457V49.3193H4.51651V47.0613Z" fill="#8593E8"/>
<path d="M64.3548 19.9644H56.3375C55.8127 17.3916 53.5331 15.4483 50.8064 15.4483C48.0798 15.4483 45.8002 17.3916 45.2754 19.9644H41.3872C39.8794 19.9644 38.4615 20.5526 37.3959 21.6183L34.3958 24.6173C33.7646 25.2485 32.8919 25.6096 31.9999 25.6096H30.4839V19.9644H31.6129C32.8583 19.9644 33.871 18.9517 33.871 17.7063V6.41602C33.871 5.17067 32.8583 4.15796 31.6129 4.15796H6.77419C5.52884 4.15796 4.51613 5.17067 4.51613 6.41602V17.7063C4.51613 18.9517 5.52884 19.9644 6.77419 19.9644H7.90323V26.0881C5.91253 26.9624 4.51613 28.9459 4.51613 31.2547V42.6592C1.94328 43.184 0 45.4647 0 48.1902C0 50.9158 1.94328 53.1964 4.51613 53.7213V59.4805C4.51613 62.5931 7.04873 65.1257 10.1613 65.1257H20.3226C20.3226 66.3711 21.3353 67.3838 22.5806 67.3838H36.129C37.3744 67.3838 38.3871 66.3711 38.3871 65.1257H44.0323C47.1448 65.1257 49.6774 62.5931 49.6774 59.4805V54.9644C49.6774 53.0972 51.1973 51.5773 53.0645 51.5773H58.7097V49.3192H53.0645C49.952 49.3192 47.4194 51.8519 47.4194 54.9644V59.4805C47.4194 61.3477 45.8995 62.8676 44.0323 62.8676H38.3871C38.3871 61.6223 37.3744 60.6096 36.129 60.6096H35.8512L31.8792 46.7089C31.56 45.5854 30.5214 44.8031 29.3548 44.8031C28.1883 44.8031 27.1497 45.5854 26.8305 46.7089L22.8585 60.6096H22.5806C21.3353 60.6096 20.3226 61.6223 20.3226 62.8676H10.1613C8.29409 62.8676 6.77419 61.3477 6.77419 59.4805V53.7213C9.34704 53.1964 11.2903 50.9169 11.2903 48.1902C11.2903 45.4636 9.34704 43.184 6.77419 42.6592V31.2547C6.77419 29.3875 8.29409 27.8676 10.1613 27.8676H14.6774V25.6096H10.1613V19.9644H28.2258V25.6096H16.9355V27.8676H31.9999C33.5077 27.8676 34.9256 27.2794 35.9912 26.2138L38.9913 23.2148C39.6225 22.5836 40.4952 22.2225 41.3872 22.2225H45.2754C45.8002 24.7953 48.0798 26.7386 50.8064 26.7386C53.5331 26.7386 55.8127 24.7953 56.3375 22.2225H64.3548C66.222 22.2225 67.7419 23.7424 67.7419 25.6096V45.9322C67.7419 47.7994 66.222 49.3192 64.3548 49.3192H60.9677V51.5773H64.3548C67.4674 51.5773 70 49.0447 70 45.9322V25.6096C70 22.497 67.4674 19.9644 64.3548 19.9644ZM29.0015 47.3275C29.0919 47.0149 29.6189 47.0149 29.7093 47.3275L33.5027 60.6096H25.2059L29.0015 47.3275ZM22.5806 62.8676H36.129L36.1301 65.1257H22.5806V62.8676ZM9.03226 48.1902C9.03226 50.0574 7.51236 51.5773 5.64516 51.5773C3.77796 51.5773 2.25806 50.0574 2.25806 48.1902C2.25806 46.323 3.77796 44.8031 5.64516 44.8031C7.51236 44.8031 9.03226 46.323 9.03226 48.1902ZM27.0968 17.7063V13.1902H31.614L31.6151 17.7063H27.0968ZM18.0645 10.9322H13.5484V6.41602H18.0645V10.9322ZM20.3226 6.41602H24.8387V10.9322H20.3226V6.41602ZM18.0645 13.1902V17.7063H13.5484V13.1902H18.0645ZM20.3226 13.1902H24.8387V17.7063H20.3226V13.1902ZM31.614 10.9322H27.0968V6.41602H31.6129L31.614 10.9322ZM11.2903 6.41602V10.9322H6.77419V6.41602H11.2903ZM6.77419 13.1902H11.2903V17.7063H6.77419V13.1902ZM50.8064 24.4805C48.9392 24.4805 47.4194 22.9606 47.4194 21.0934C47.4194 19.2262 48.9392 17.7063 50.8064 17.7063C52.6737 17.7063 54.1936 19.2262 54.1936 21.0934C54.1936 22.9606 52.6737 24.4805 50.8064 24.4805Z" fill="#8593E8"/>
</g>
<defs>
<clipPath id="clip0_2435_878">
<rect width="70" height="70" fill="white" transform="translate(0 0.770996)"/>
</clipPath>
</defs>
</svg>
