<svg width="79" height="89" viewBox="0 0 79 89" fill="none" xmlns="http://www.w3.org/2000/svg">
<path d="M64.0541 50.3045C65.506 50.3045 66.9151 50.4721 68.3243 50.6816V37.733C68.3243 35.5103 67.4245 33.3785 65.8229 31.8068C64.2212 30.2351 62.0489 29.3521 59.7838 29.3521H55.5135V20.9711C55.5135 9.40541 45.9481 0.0187378 34.1622 0.0187378C22.3762 0.0187378 12.8108 9.40541 12.8108 20.9711V29.3521H8.54054C6.27545 29.3521 4.10313 30.2351 2.50147 31.8068C0.899804 33.3785 0 35.5103 0 37.733V79.6378C0 84.2892 3.80054 88.0187 8.54054 88.0187H41.8914C39.7135 84.3311 38.4324 80.0568 38.4324 75.4473C38.4324 61.5768 49.9195 50.3045 64.0541 50.3045ZM21.3514 20.9711C21.3514 14.0149 27.0735 8.39969 34.1622 8.39969C41.2508 8.39969 46.973 14.0149 46.973 20.9711V29.3521H21.3514V20.9711ZM34.1622 67.0664C32.473 67.0664 30.8218 66.5748 29.4173 65.6539C28.0128 64.733 26.9181 63.4241 26.2717 61.8927C25.6253 60.3612 25.4562 58.6761 25.7857 57.0504C26.1153 55.4246 26.9287 53.9313 28.1231 52.7592C29.3175 51.5871 30.8393 50.7889 32.496 50.4655C34.1527 50.1421 35.8699 50.3081 37.4305 50.9424C38.9911 51.5768 40.3249 52.651 41.2634 54.0292C42.2018 55.4074 42.7027 57.0278 42.7027 58.6854C42.7027 63.3368 38.9022 67.0664 34.1622 67.0664ZM79 68.114L58.7162 88.0187L46.973 75.4473L51.9265 70.5864L58.7162 77.2492L74.0465 62.2054L79 68.114Z" fill="url(#paint0_linear_2432_1666)"/>
<defs>
<linearGradient id="paint0_linear_2432_1666" x1="39.5" y1="0.0187327" x2="146.586" y2="27.2268" gradientUnits="userSpaceOnUse">
<stop stop-color="#00DD9C"/>
<stop offset="0.609375" stop-color="#253FE0" stop-opacity="0.619792"/>
<stop offset="1" stop-color="#060ED0" stop-opacity="0.28"/>
</linearGradient>
</defs>
</svg>
