<svg xmlns="http://www.w3.org/2000/svg" width="50" height="57" viewBox="0 0 50 57" fill="none">
    <path d="M40.5406 31.8383C41.4595 31.8383 42.3513 31.9443 43.2432 32.0769V23.8816C43.2432 22.4749 42.6737 21.1256 41.6601 20.1309C40.6463 19.1361 39.2715 18.5773 37.8378 18.5773H35.1351V13.2728C35.1351 5.95277 29.0811 0.0118408 21.6216 0.0118408C14.1622 0.0118408 8.1081 5.95277 8.1081 13.2728V18.5773H5.40541C3.9718 18.5773 2.59692 19.1361 1.58321 20.1309C0.569496 21.1256 0 22.4749 0 23.8816V50.4037C0 53.3476 2.40541 55.708 5.40541 55.708H26.5135C25.1351 53.3741 24.3243 50.6688 24.3243 47.7514C24.3243 38.9726 31.5946 31.8383 40.5406 31.8383ZM13.5135 13.2728C13.5135 8.87017 17.1351 5.31624 21.6216 5.31624C26.1081 5.31624 29.7297 8.87017 29.7297 13.2728V18.5773H13.5135V13.2728ZM21.6216 42.4471C20.5525 42.4471 19.5075 42.1359 18.6185 41.5531C17.7296 40.9702 17.0368 40.1418 16.6277 39.1726C16.2185 38.2033 16.1115 37.1368 16.3201 36.1078C16.5287 35.0788 17.0435 34.1337 17.7994 33.3919C18.5554 32.65 19.5185 32.1449 20.5671 31.9402C21.6156 31.7355 22.7025 31.8406 23.6902 32.242C24.6779 32.6435 25.5221 33.3234 26.1161 34.1957C26.71 35.068 27.027 36.0935 27.027 37.1426C27.027 40.0866 24.6216 42.4471 21.6216 42.4471ZM50 43.1101L37.1622 55.708L29.7297 47.7514L32.8649 44.6749L37.1622 48.8919L46.8649 39.3705L50 43.1101Z" fill="white"/>
  </svg>