<svg width="77" height="84" viewBox="0 0 77 84" fill="none" xmlns="http://www.w3.org/2000/svg">
<path d="M59.884 0.0187378C63.1566 0.0185609 66.3057 1.2319 68.6868 3.41049C71.0679 5.58909 72.5011 8.56826 72.6931 11.7384L72.7144 12.4688V62.2693C73.675 62.2674 74.6083 62.5793 75.3639 63.1549C76.1195 63.7304 76.6535 64.536 76.8797 65.4419C77.1059 66.3478 77.0113 67.3012 76.611 68.1486C76.2107 68.9959 75.5282 69.6878 74.6732 70.1128L74.2156 70.3037L40.001 82.7539C39.2306 83.0346 38.393 83.0937 37.5889 82.924L36.9987 82.758L2.78407 70.3079C1.88542 69.9831 1.12533 69.3747 0.625873 68.5803C0.126417 67.786 -0.0834217 66.8518 0.0300559 65.9278C0.143534 65.0038 0.573743 64.1436 1.25159 63.4854C1.92944 62.8272 2.8156 62.4091 3.76774 62.2983L4.28524 62.2693V12.4688C4.28506 9.29319 5.53546 6.2375 7.78062 3.92699C10.0258 1.61647 13.096 0.225793 16.363 0.0394885L17.1157 0.0187378H59.884ZM38.4998 12.4688C37.4523 12.469 36.4412 12.8422 35.6584 13.5176C34.8756 14.1931 34.3755 15.1238 34.253 16.1333L34.223 16.6189V20.7689H29.9462C27.1667 20.7624 24.4939 21.8063 22.4942 23.6795C20.4945 25.5527 19.3251 28.1079 19.2339 30.8035C19.1427 33.4991 20.1368 36.1233 22.0056 38.1197C23.8744 40.1161 26.4709 41.328 29.2448 41.4983L29.9462 41.5191H34.223V45.6691H25.6694C24.5793 45.6703 23.5308 46.0753 22.7382 46.8015C21.9455 47.5276 21.4685 48.52 21.4046 49.576C21.3407 50.6319 21.6948 51.6717 22.3944 52.4828C23.0941 53.2939 24.0865 53.8152 25.169 53.9402L25.6694 53.9692H34.223V58.1192C34.2242 59.177 34.6416 60.1944 35.3899 60.9635C36.1383 61.7327 37.161 62.1955 38.2492 62.2575C39.3374 62.3195 40.4089 61.976 41.2448 61.2971C42.0808 60.6182 42.618 59.6552 42.7467 58.6048L42.7767 58.1192V53.9692H47.0535C49.8329 53.9758 52.5058 52.9318 54.5055 51.0586C56.5052 49.1854 57.6746 46.6302 57.7658 43.9346C57.857 41.239 56.8629 38.6149 54.9941 36.6184C53.1253 34.622 50.5288 33.4101 47.7549 33.2398L47.0535 33.219H42.7767V29.069H51.3303C52.4204 29.0678 53.4689 28.6628 54.2615 27.9367C55.0542 27.2105 55.5312 26.2181 55.595 25.1622C55.6589 24.1062 55.3049 23.0665 54.6052 22.2553C53.9056 21.4442 52.9131 20.9229 51.8307 20.798L51.3303 20.7689H42.7767V16.6189C42.7767 15.5182 42.3261 14.4626 41.524 13.6844C40.722 12.9061 39.6341 12.4688 38.4998 12.4688ZM47.0535 41.5191C47.6206 41.5191 48.1645 41.7377 48.5656 42.1269C48.9666 42.516 49.1919 43.0438 49.1919 43.5941C49.1919 44.1444 48.9666 44.6722 48.5656 45.0614C48.1645 45.4505 47.6206 45.6691 47.0535 45.6691H42.7767V41.5191H47.0535ZM34.223 29.069V33.219H29.9462C29.379 33.219 28.8351 33.0004 28.4341 32.6113C28.0331 32.2221 27.8078 31.6943 27.8078 31.144C27.8078 30.5937 28.0331 30.0659 28.4341 29.6767C28.8351 29.2876 29.379 29.069 29.9462 29.069H34.223Z" fill="url(#paint0_linear_2432_1660)"/>
<defs>
<linearGradient id="paint0_linear_2432_1660" x1="38.5" y1="0.018733" x2="142.447" y2="27.3113" gradientUnits="userSpaceOnUse">
<stop stop-color="#F7BC51"/>
<stop offset="0.609375" stop-color="#60E7CE" stop-opacity="0.5"/>
<stop offset="1" stop-color="#060ED0" stop-opacity="0.28"/>
</linearGradient>
</defs>
</svg>
