<svg xmlns="http://www.w3.org/2000/svg" width="50" height="55" viewBox="0 0 50 55" fill="none">
    <g clip-path="url(#clip0_2_1344)">
      <path d="M38.8857 0.012146C41.0108 0.0120311 43.0556 0.799914 44.6018 2.21458C46.148 3.62926 47.0786 5.56378 47.2033 7.62232L47.2171 8.0966V40.4346C47.8409 40.4334 48.4469 40.6359 48.9376 41.0097C49.4282 41.3834 49.775 41.9065 49.9219 42.4947C50.0688 43.083 50.0073 43.7021 49.7474 44.2523C49.4875 44.8025 49.0443 45.2518 48.4891 45.5278L48.1919 45.6517L25.9747 53.7363C25.4744 53.9186 24.9305 53.9569 24.4084 53.8467L24.0251 53.7389L1.80784 45.6545C1.2243 45.4436 0.730734 45.0485 0.406411 44.5326C0.082089 44.0169 -0.0541699 43.4102 0.0195169 42.8102C0.0932039 42.2102 0.37256 41.6517 0.812721 41.2243C1.25288 40.7969 1.82831 40.5254 2.44658 40.4534L2.78262 40.4346V8.0966C2.78251 6.03452 3.59445 4.0503 5.05235 2.54997C6.51026 1.04963 8.5039 0.146597 10.6253 0.0256205L11.1141 0.012146H38.8857ZM24.9999 8.0966C24.3197 8.09673 23.6631 8.33907 23.1548 8.77764C22.6465 9.21628 22.3218 9.82063 22.2422 10.4761L22.2227 10.7915V13.4863H19.4456C17.6407 13.4821 15.9051 14.1599 14.6066 15.3763C13.3081 16.5926 12.5488 18.2519 12.4895 20.0023C12.4303 21.7526 13.0758 23.4567 14.2894 24.753C15.5029 26.0494 17.1889 26.8363 18.9901 26.9469L19.4456 26.9604H22.2227V29.6552H16.6684C15.9606 29.656 15.2797 29.919 14.7651 30.3906C14.2503 30.8621 13.9406 31.5065 13.8991 32.1922C13.8576 32.8778 14.0875 33.553 14.5418 34.0797C14.9962 34.6064 15.6406 34.9449 16.3435 35.0261L16.6684 35.0449H22.2227V37.7397C22.2235 38.4266 22.4945 39.0873 22.9805 39.5867C23.4664 40.0862 24.1305 40.3867 24.8371 40.4269C25.5438 40.4672 26.2395 40.2441 26.7823 39.8033C27.3252 39.3624 27.674 38.7371 27.7576 38.055L27.7771 37.7397V35.0449H30.5542C32.359 35.0492 34.0947 34.3713 35.3932 33.1549C36.6917 31.9386 37.451 30.2793 37.5103 28.5289C37.5695 26.7786 36.924 25.0746 35.7105 23.7782C34.4969 22.4818 32.8109 21.6949 31.0097 21.5843L30.5542 21.5708H27.7771V18.876H33.3314C34.0392 18.8752 34.7201 18.6122 35.2347 18.1407C35.7495 17.6691 36.0592 17.0247 36.1007 16.3391C36.1421 15.6534 35.9123 14.9782 35.4579 14.4515C35.0036 13.9248 34.3592 13.5863 33.6563 13.5052L33.3314 13.4863H27.7771V10.7915C27.7771 10.0767 27.4845 9.39128 26.9636 8.88595C26.4429 8.38056 25.7364 8.0966 24.9999 8.0966ZM30.5542 26.9604C30.9225 26.9604 31.2757 27.1024 31.5361 27.3551C31.7965 27.6078 31.9428 27.9505 31.9428 28.3078C31.9428 28.6652 31.7965 29.0079 31.5361 29.2606C31.2757 29.5133 30.9225 29.6552 30.5542 29.6552H27.7771V26.9604H30.5542ZM22.2227 18.876V21.5708H19.4456C19.0773 21.5708 18.7241 21.4288 18.4637 21.1761C18.2033 20.9234 18.057 20.5807 18.057 20.2234C18.057 19.866 18.2033 19.5233 18.4637 19.2706C18.7241 19.0179 19.0773 18.876 19.4456 18.876H22.2227Z" fill="white"/>
    </g>
    <defs>
      <clipPath id="clip0_2_1344">
        <rect width="50" height="54.5455" fill="white"/>
      </clipPath>
    </defs>
  </svg>