<svg width="70" height="71" viewBox="0 0 70 71" fill="none" xmlns="http://www.w3.org/2000/svg">
<g clip-path="url(#clip0_2435_872)">
<path d="M57.9206 22.569L69.5993 10.8904C70.1297 10.3651 70.1339 9.50928 69.6086 8.97874C69.3658 8.73358 69.0385 8.59047 68.6936 8.57898L68.7342 8.66008L62.3812 8.44381L62.165 2.09085C62.1398 1.34471 61.5146 0.760276 60.7685 0.785452C60.4236 0.79711 60.0962 0.940052 59.8536 1.18522L48.1885 12.7963C47.9252 13.0612 47.7833 13.4233 47.7965 13.7965V15.1482C33.9272 5.59393 14.939 9.09195 5.3847 22.961C-4.16958 36.8301 -0.67173 55.8185 13.1975 65.3728C27.0665 74.927 46.055 71.429 55.6092 57.56C62.7852 47.1433 62.7852 33.3778 55.6092 22.961H56.9609C57.3202 22.963 57.6655 22.8219 57.9206 22.569ZM58.3262 40.2762C58.3464 55.6395 45.9083 68.1104 30.545 68.1307C15.1816 68.151 2.71071 55.7129 2.69044 40.3495C2.67016 24.9862 15.1083 12.5153 30.4716 12.495C36.8329 12.4866 43.0047 14.6587 47.9587 18.6491L48.0262 20.9064L42.6195 26.3132C34.9282 19.5721 23.2284 20.3426 16.4873 28.0339C9.74628 35.7252 10.5167 47.425 18.2081 54.166C25.8994 60.9071 37.5991 60.1366 44.3402 52.4453C50.3968 45.5348 50.4699 35.2283 44.5118 28.2326L49.9186 22.8258L52.1489 22.9069C56.1242 27.8252 58.3032 33.9523 58.3262 40.2762ZM29.6432 41.1818C30.1704 41.706 31.0219 41.706 31.5491 41.1818L34.2525 38.4784C34.5159 39.0222 34.6544 39.6179 34.658 40.2221C34.658 42.4617 32.8425 44.2772 30.6029 44.2772C28.3633 44.2772 26.5478 42.4617 26.5478 40.2221C26.5478 37.9825 28.3633 36.167 30.6029 36.167C31.2071 36.1706 31.8029 36.3091 32.3466 36.5726L29.6432 39.2759C29.1191 39.8031 29.1191 40.6547 29.6432 41.1818ZM34.3201 34.5856C31.2075 32.5256 27.0142 33.3788 24.9542 36.4915C22.8942 39.6041 23.7475 43.7974 26.8601 45.8573C29.9727 47.9173 34.166 47.0641 36.226 43.9515C37.7226 41.6899 37.7226 38.7528 36.226 36.4915L42.633 30.0844C48.2498 36.7537 47.3964 46.7135 40.7271 52.3303C34.0578 57.9471 24.0981 57.0936 18.4813 50.4244C12.8645 43.7551 13.7179 33.7953 20.3872 28.1785C26.264 23.2293 34.8503 23.2293 40.7271 28.1785L34.3201 34.5856ZM50.7567 20.0684L50.5674 14.3102L59.6238 5.25381L59.7725 9.75495C59.7725 10.5014 60.3777 11.1066 61.1242 11.1066L65.6253 11.2553L56.5149 20.2576L50.7567 20.0684Z" fill="#8593E8"/>
</g>
<defs>
<clipPath id="clip0_2435_872">
<rect width="70" height="70" fill="white" transform="translate(0 0.770996)"/>
</clipPath>
</defs>
</svg>
