<svg width="23" height="21" viewBox="0 0 23 21" fill="none" xmlns="http://www.w3.org/2000/svg">
<path fill-rule="evenodd" clip-rule="evenodd" d="M0 3.5C0 1.567 1.71624 0 3.83333 0H7.23614C8.29154 0 9.2115 0.655824 9.46747 1.59068L10.3661 4.87249C10.6575 5.93705 10.0022 7.02705 8.86206 7.37405L7.16216 7.89141C6.64173 8.0498 6.33191 8.53724 6.4395 9.0284C7.1129 12.1026 9.74476 14.5056 13.1118 15.1205C13.6497 15.2187 14.1835 14.9358 14.357 14.4606L14.8136 13.21C15.2562 11.9976 16.7723 11.4243 18.0242 11.9958L21.7286 13.687C22.5078 14.0427 23 14.7698 23 15.5652V17.5C23 19.433 21.2838 21 19.1667 21H16.1C7.20821 21 0 14.4186 0 6.3V3.5ZM3.83333 1.4C2.56308 1.4 1.53333 2.3402 1.53333 3.5V6.3C1.53333 13.6454 8.05505 19.6 16.1 19.6H19.1667C20.4369 19.6 21.4667 18.6598 21.4667 17.5V15.5652C21.4667 15.3001 21.3026 15.0577 21.0429 14.9391L17.3384 13.248C16.9211 13.0575 16.4158 13.2486 16.2682 13.6527L15.8117 14.9034C15.3937 16.0484 14.1073 16.73 12.811 16.4933C8.83706 15.7676 5.73074 12.9314 4.93594 9.30296C4.6767 8.11946 5.42323 6.94492 6.67728 6.56325L8.37718 6.04589C8.75723 5.93022 8.97567 5.56689 8.87851 5.21204L7.97992 1.93022C7.89459 1.61861 7.58794 1.4 7.23614 1.4H3.83333Z" fill="white"/>
</svg>
