<svg width="23" height="23" viewBox="0 0 23 23" fill="none" xmlns="http://www.w3.org/2000/svg">
<path fill-rule="evenodd" clip-rule="evenodd" d="M11.5 1.53333C6.843 1.53333 3.06666 5.3079 3.06666 9.96063C3.06666 13.5221 4.84795 16.4031 6.86693 18.4208C7.87391 19.4271 8.92434 20.2019 9.80489 20.7208C10.2454 20.9805 10.6344 21.1708 10.9459 21.2937C11.2799 21.4255 11.4572 21.4527 11.5 21.4527C11.5428 21.4527 11.7201 21.4255 12.0541 21.2937C12.3656 21.1708 12.7546 20.9805 13.1951 20.7208C14.0756 20.2019 15.1261 19.4271 16.1331 18.4208C18.152 16.4031 19.9333 13.5221 19.9333 9.96063C19.9333 5.3079 16.157 1.53333 11.5 1.53333ZM1.53333 9.96063C1.53333 4.46011 5.99712 0 11.5 0C17.0029 0 21.4667 4.46011 21.4667 9.96063C21.4667 14.0608 19.4146 17.3091 17.2169 19.5054C16.1156 20.606 14.9618 21.4594 13.9736 22.0418C13.4798 22.3329 13.0183 22.5616 12.617 22.72C12.2382 22.8695 11.8406 22.986 11.5 22.986C11.1594 22.986 10.7618 22.8695 10.383 22.72C9.98173 22.5616 9.52019 22.3329 9.02635 22.0418C8.03815 21.4594 6.88441 20.606 5.78305 19.5054C3.58537 17.3091 1.53333 14.0608 1.53333 9.96063ZM7.66666 9.96063C7.66666 7.84504 9.38425 6.12931 11.5 6.12931C13.6157 6.12931 15.3333 7.84504 15.3333 9.96063C15.3333 12.0762 13.6158 13.792 11.5 13.792C9.38423 13.792 7.66666 12.0762 7.66666 9.96063ZM11.5 7.66264C10.2301 7.66264 9.19999 8.69283 9.19999 9.96063C9.19999 11.2284 10.2302 12.2587 11.5 12.2587C12.7698 12.2587 13.8 11.2284 13.8 9.96063C13.8 8.69283 12.7698 7.66264 11.5 7.66264Z" fill="white"/>
</svg>
