<svg xmlns="http://www.w3.org/2000/svg" width="50" height="61" viewBox="0 0 50 61" fill="none">
    <path d="M25 0.012146L47.825 4.97059C48.4418 5.10463 48.9935 5.44027 49.3889 5.9221C49.7844 6.40393 49.9999 7.00316 50 7.62089V34.7402C49.9998 37.4224 49.3223 40.063 48.0275 42.4278C46.7327 44.7925 44.8607 46.8082 42.5778 48.2958L25 59.7524L7.42221 48.2958C5.1393 46.8087 3.26733 44.7936 1.97253 42.4293C0.677734 40.065 0.000167103 37.4247 0 34.743V7.62089C0.000108438 7.00316 0.215661 6.40393 0.611082 5.9221C1.0065 5.44027 1.55816 5.10463 2.175 4.97059L25 0.012146ZM37.3667 19.6232L23.6167 33.0621L15.7611 25.3828L11.8333 29.2224L23.6194 40.7441L41.2972 23.4629L37.3667 19.6232Z" fill="white"/>
    </svg>