<svg width="77" height="93" viewBox="0 0 77 93" fill="none" xmlns="http://www.w3.org/2000/svg">
<path d="M38.5 0.0187378L73.6505 7.65474C74.6004 7.86117 75.45 8.37805 76.0589 9.12007C76.6679 9.86209 76.9998 10.7849 77 11.7362V53.5C76.9997 57.6305 75.9563 61.6971 73.9623 65.3388C71.9683 68.9805 69.0855 72.0846 65.5698 74.3756L38.5 92.0187L11.4302 74.3756C7.91452 72.0855 5.03169 68.9822 3.0377 65.3412C1.04371 61.7001 0.000257338 57.6341 0 53.5042V11.7362C0.000166995 10.7849 0.332118 9.86209 0.941066 9.12007C1.55001 8.37805 2.39956 7.86117 3.3495 7.65474L38.5 0.0187378ZM57.5447 30.2198L36.3697 50.9156L24.2721 39.0895L18.2233 45.0026L36.3739 62.746L63.5977 36.1329L57.5447 30.2198Z" fill="url(#paint0_linear_2432_1662)"/>
<defs>
<linearGradient id="paint0_linear_2432_1662" x1="38.5" y1="0.0187325" x2="143.71" y2="24.9405" gradientUnits="userSpaceOnUse">
<stop stop-color="#05D2FF"/>
<stop offset="0.609375" stop-color="#253FE0" stop-opacity="0.619792"/>
<stop offset="1" stop-color="#060ED0" stop-opacity="0.28"/>
</linearGradient>
</defs>
</svg>
