<svg xmlns="http://www.w3.org/2000/svg" width="50" height="45" viewBox="0 0 50 45" fill="none">
    <g clip-path="url(#clip0_2_1348)">
      <path d="M12.5 19.6189H5C3.67392 19.6189 2.40215 19.1024 1.46447 18.1831C0.526787 17.2638 0 16.017 0 14.7169V4.91301C0 3.61293 0.526787 2.3661 1.46447 1.4468C2.40215 0.527502 3.67392 0.0110474 5 0.0110474H12.5C13.8261 0.0110474 15.0979 0.527502 16.0355 1.4468C16.9732 2.3661 17.5 3.61293 17.5 4.91301V7.36397H32.475V4.91301C32.475 3.61293 33.0018 2.3661 33.9395 1.4468C34.8772 0.527502 36.1489 0.0110474 37.475 0.0110474H45C47.75 0.0110474 50 2.21693 50 4.91301V14.7169C50 16.017 49.4732 17.2638 48.5355 18.1831C47.5978 19.1024 46.3261 19.6189 45 19.6189H37.5C36.1739 19.6189 34.9022 19.1024 33.9645 18.1831C33.0268 17.2638 32.5 16.017 32.5 14.7169V12.266H27.5V29.4473C27.5 33.4914 24.15 36.7757 20.025 36.7757H17.5V39.2267C17.5 40.5268 16.9732 41.7737 16.0355 42.693C15.0979 43.6123 13.8261 44.1287 12.5 44.1287H5C3.67392 44.1287 2.40215 43.6123 1.46447 42.693C0.526787 41.7737 0 40.5268 0 39.2267V29.4228C0 28.1227 0.526787 26.8759 1.46447 25.9566C2.40215 25.0373 3.67392 24.5208 5 24.5208H12.5C13.8261 24.5208 15.0979 25.0373 16.0355 25.9566C16.9732 26.8759 17.5 28.1227 17.5 29.4228V31.8738H20.025C21.375 31.8738 22.5 30.7708 22.5 29.4473V12.266H17.5V14.7169C17.5 17.413 15.25 19.6189 12.5 19.6189Z" fill="white"/>
    </g>
    <defs>
      <clipPath id="clip0_2_1348">
        <rect width="50" height="44.7059" fill="white"/>
      </clipPath>
    </defs>
  </svg>