<svg width="70" height="71" viewBox="0 0 70 71" fill="none" xmlns="http://www.w3.org/2000/svg">
<path d="M2.25801 9.80304H38.3862V12.061H40.6442V6.41602C40.6442 3.30335 38.1118 0.770996 34.9992 0.770996H5.64503C2.53236 0.770996 0 3.30335 0 6.41602V57.2213H2.25801V9.80304ZM2.25801 6.41602C2.25801 4.54865 3.77765 3.02901 5.64503 3.02901H34.9992C36.8665 3.02901 38.3862 4.54865 38.3862 6.41602V7.54503H2.25801V6.41602Z" fill="#8593E8"/>
<path d="M0 65.126C0 68.2387 2.53236 70.771 5.64503 70.771H34.9992C38.1118 70.771 40.6442 68.2387 40.6442 65.126V59.481H0V65.126ZM2.25801 61.739H38.3862V65.126C38.3862 66.9934 36.8665 68.513 34.9992 68.513H5.64503C3.77765 68.513 2.25801 66.9934 2.25801 65.126V61.739Z" fill="#8593E8"/>
<path d="M25.9692 63.9946H14.6791V66.2527H25.9692V63.9946Z" fill="#8593E8"/>
<path d="M50.8042 35.7703C47.0683 35.7703 44.0302 38.8084 44.0302 42.5443C44.0302 46.2802 47.0683 49.3183 50.8042 49.3183C54.5401 49.3183 57.5783 46.2802 57.5783 42.5443C57.5783 38.8084 54.5401 35.7703 50.8042 35.7703ZM50.8042 47.0603C48.3136 47.0603 46.2882 45.0349 46.2882 42.5443C46.2882 40.0537 48.3136 38.0283 50.8042 38.0283C53.2948 38.0283 55.3202 40.0537 55.3202 42.5443C55.3202 45.0349 53.2948 47.0603 50.8042 47.0603Z" fill="#8593E8"/>
<path d="M19.1965 21.0911C16.0839 21.0911 13.5515 23.6234 13.5515 26.7361C13.5515 29.8488 16.0839 32.3811 19.1965 32.3811C22.3092 32.3811 24.8416 29.8488 24.8416 26.7361C24.8416 23.6234 22.3092 21.0911 19.1965 21.0911ZM19.1965 30.1231C17.3292 30.1231 15.8095 28.6035 15.8095 26.7361C15.8095 24.8687 17.3292 23.3491 19.1965 23.3491C21.0639 23.3491 22.5836 24.8687 22.5836 26.7361C22.5836 28.6035 21.0639 30.1231 19.1965 30.1231Z" fill="#8593E8"/>
<path d="M23.2007 37.2969C23.4084 37.2179 23.6151 37.131 23.8205 37.0373L27.3204 39.3709L31.8229 34.8684L29.4893 31.3685C29.583 31.1619 29.6699 30.9553 29.7489 30.7487L33.8698 29.9245V23.5569L29.7489 22.7327C29.5898 22.3206 29.4023 21.9085 29.189 21.501L27.1906 22.5521C27.4514 23.05 27.6637 23.5546 27.8172 24.0491L28.017 24.6893L31.6118 25.4085V28.0729L28.0159 28.7921L27.8161 29.4323C27.6625 29.9268 27.4514 30.4303 27.1895 30.9293L26.8779 31.5232L28.9157 34.5805L27.0326 36.4649L23.9752 34.4259L23.3825 34.7375C22.8868 34.9983 22.3822 35.2094 21.8843 35.3652L21.2453 35.565L20.5261 39.1598H17.8605L17.1413 35.565L16.5023 35.3652C16.0044 35.2094 15.4998 34.9983 15.0041 34.7375L14.4114 34.4259L11.3541 36.4649L8.81606 33.9257L7.21964 35.5221L11.0673 39.3698L14.5672 37.0361C14.7727 37.1298 14.9793 37.2168 15.187 37.2958L16.0112 41.4167H22.3777L23.2007 37.2969Z" fill="#8593E8"/>
<path d="M4.51857 23.5526V29.9202L8.63944 30.7444C8.79863 31.1565 8.98604 31.5685 9.19943 31.9761L11.1978 30.925C10.937 30.4271 10.7247 29.9225 10.5712 29.4279L10.3713 28.7878L6.77658 28.0686V25.4042L10.3725 24.685L10.5723 24.0448C10.7258 23.5503 10.937 23.0468 11.1989 22.5478L11.5105 21.9539L9.47264 18.8966L11.357 17.0123L14.4154 19.0513L15.0082 18.7385C15.5027 18.4789 16.0062 18.2677 16.5041 18.1119L17.1431 17.9121L17.8623 14.3173H20.5279L21.247 17.9121L21.8861 18.1119C22.3839 18.2677 22.8886 18.4789 23.382 18.7385L23.9747 19.0513L27.0332 17.0123L29.5723 19.5514L31.1687 17.955L27.3222 14.1073L23.8212 16.4399C23.6146 16.3462 23.4091 16.2604 23.2014 16.1802L22.3783 12.0593H16.0118L15.1877 16.1802C14.9799 16.2604 14.7745 16.3462 14.5678 16.4399L11.0668 14.1073L6.56546 18.6087L8.89911 22.1086C8.8054 22.3152 8.71847 22.5218 8.63944 22.7284L4.51857 23.5526Z" fill="#8593E8"/>
<path d="M20.3203 43.6731H18.0623V45.9311H20.3203V43.6731Z" fill="#8593E8"/>
<path d="M20.3203 48.1865H18.0623V50.4445H20.3203V48.1865Z" fill="#8593E8"/>
<path d="M20.3203 52.7063H18.0623V54.9643H20.3203V52.7063Z" fill="#8593E8"/>
<path d="M51.9365 18.834H49.6785V21.092H51.9365V18.834Z" fill="#8593E8"/>
<path d="M51.9365 14.322H49.6785V16.58H51.9365V14.322Z" fill="#8593E8"/>
<path d="M51.9365 9.802H49.6785V12.06H51.9365V9.802Z" fill="#8593E8"/>
<path d="M69.9997 46.8607V38.2351L64.4314 37.1231C64.3016 36.7968 64.1582 36.4739 64.0035 36.1555L61.9725 37.1434C62.1847 37.5814 62.3721 38.0285 62.5257 38.4756L62.7379 39.0864L67.7417 40.0867V45.008L62.7379 46.0094L62.5257 46.6202C62.371 47.0673 62.1847 47.5155 61.9725 47.9524L61.6891 48.5339L64.5218 52.7823L61.041 56.263L56.7914 53.4315L56.21 53.7148C55.7731 53.9271 55.3249 54.1145 54.8778 54.2681L54.267 54.4803L53.2678 59.4829H48.3453L47.3439 54.4792L46.7331 54.2669C46.286 54.1123 45.8378 53.926 45.4009 53.7137L44.8195 53.4303L40.5699 56.2619L36.4343 52.1275L34.8379 53.7239L40.2831 59.1679L45.008 56.018C45.1311 56.0711 45.2553 56.123 45.3794 56.1727L46.4938 61.7409H55.1205L56.2326 56.1727C56.3568 56.123 56.481 56.0711 56.604 56.018L61.3289 59.1679L67.429 53.0702L64.2779 48.3442C64.331 48.2211 64.3829 48.0969 64.4326 47.9728L69.9997 46.8607Z" fill="#8593E8"/>
<path d="M34.1857 32.0245L37.3367 36.7494C37.2836 36.8725 37.2317 36.9967 37.182 37.1209L31.6149 38.234V46.8608L37.1832 47.9728C37.313 48.2991 37.4564 48.622 37.6111 48.9393L39.6421 47.9514C39.4299 47.5145 39.2425 47.0663 39.0889 46.6192L38.8767 46.0084L33.8729 45.0081V40.0856L38.8767 39.0842L39.0889 38.4734C39.2436 38.0263 39.4299 37.5792 39.6421 37.1412L39.9255 36.5586L37.0928 32.3113L40.5736 28.8306L44.822 31.6621L45.4046 31.3799C45.8404 31.1676 46.2897 30.9802 46.7391 30.8244L47.3476 30.6121L48.3456 25.6118H53.2692L54.2695 30.6133L54.8781 30.8255C55.3263 30.9813 55.7768 31.1687 56.2125 31.381L56.7951 31.6632L61.0436 28.8317L65.1791 32.9672L66.7755 31.3708L61.3303 25.9268L56.6043 29.0767C56.4824 29.0236 56.3582 28.9728 56.234 28.9231L55.1197 23.3538H46.4952L45.382 28.922C45.2578 28.9717 45.1336 29.0225 45.0117 29.0756L40.2857 25.9256L34.1857 32.0245Z" fill="#8593E8"/>
</svg>
