<svg xmlns="http://www.w3.org/2000/svg" xmlns:xlink="http://www.w3.org/1999/xlink" width="20" height="20" viewBox="0 0 20 20">
  <defs>
    <clipPath id="clip-path">
      <rect id="Rectangle_72336" data-name="Rectangle 72336" width="20" height="20" transform="translate(86 211)" fill="#8593e8" stroke="#707070" stroke-width="1"/>
    </clipPath>
  </defs>
  <g id="Mask_Group_43438" data-name="Mask Group 43438" transform="translate(-86 -211)" clip-path="url(#clip-path)">
    <path id="time-sand-svgrepo-com" d="M18.182,2.727a.909.909,0,1,0,0-1.818H3.636a.909.909,0,1,0,0,1.818H4.59C4.723,4.4,5.265,7.955,7.494,10c-2.35,2.283-2.828,7.031-2.924,9.091H3.636a.909.909,0,1,0,0,1.818H18.182a.909.909,0,1,0,0-1.818h-.934c-.1-2.058-.574-6.806-2.924-9.091,2.228-2.047,2.771-5.605,2.9-7.273ZM12.345,9.205a.909.909,0,0,0,.032,1.606c2.215,1.116,2.909,5.737,3.05,8.279H6.391c.137-2.545.835-7.163,3.05-8.279a.909.909,0,0,0,.032-1.606C7.165,7.925,6.57,4.4,6.416,2.727H15.4c-.154,1.676-.748,5.2-3.056,6.478Zm-1.436,2.613S13.636,14,13.636,15.091v3.091H8.182V15.091C8.182,14,10.909,11.818,10.909,11.818Z" transform="translate(85.091 210.091)" fill="#8593e8"/>
  </g>
</svg>
