<?xml version="1.0" encoding="utf-8"?>
<svg width="1600" height="1205" viewBox="0 0 1600 1205" fill="none" xmlns="http://www.w3.org/2000/svg">
  <path d="M 766.5 35.849 C 766.5 17.885 781.246 3.271 799.5 3.271 C 817.754 3.271 832.5 17.885 832.5 35.849 L 832.5 622.271 L 766.5 622.271 L 766.5 35.849 Z" stroke="url(#paint0_linear_2432_752)" stroke-width="5" style=""/>
  <path fill-rule="evenodd" clip-rule="evenodd" d="M 840.5 525.193 C 840.829 523.101 841 520.956 841 518.771 C 841 496.127 822.644 477.771 800 477.771 C 777.691 477.771 759.543 495.589 759.012 517.771 L 758.5 517.771 L 758.5 598.771 C 758.5 800.771 541.43 1204.771 -2 1204.771 L 1601 1204.771 C 1055.17 1204.771 840.5 808.271 840.5 598.771 L 840.5 525.193" fill="url(#paint0_linear_2435_660)" style=""/>
  <defs>
    <linearGradient id="paint0_linear_2435_660" x1="800.5" y1="55.771" x2="800.5" y2="713.898" gradientUnits="userSpaceOnUse" gradientTransform="matrix(1, 0, 0, 1, -1, 477)">
      <stop stop-color="#8EFFFF" stop-opacity="0.03"/>
      <stop offset="1" stop-color="#8EFFFF"/>
    </linearGradient>
    <linearGradient id="paint0_linear_2432_752" x1="35.5" y1="0.770874" x2="35.5" y2="575.135" gradientUnits="userSpaceOnUse" gradientTransform="matrix(1, 0, 0, 1, 764, 0)">
      <stop/>
      <stop offset="0.3021" stop-color="#8EFFFF" stop-opacity="0"/>
      <stop offset="0.7917" stop-color="#8EFFFF" stop-opacity="0.1"/>
      <stop offset="1" stop-color="#8EFFFF" stop-opacity="0"/>
    </linearGradient>
    <linearGradient id="gradient-1" x1="800.5" y1="55.771" x2="800.5" y2="713.898" gradientUnits="userSpaceOnUse" gradientTransform="matrix(1, 0, 0, 1, -1, 477)">
      <stop stop-color="#8EFFFF" stop-opacity="0.03"/>
      <stop offset="1" stop-color="#8EFFFF"/>
    </linearGradient>
  </defs>
  <path fill-rule="evenodd" clip-rule="evenodd" d="M 767.621 2342.23 C 761.662 2332.78 758.5 2321.84 758.5 2310.67 C 758.5 2268.04 541.43 2182.77 -2 2182.77 L 1601 2182.77 C 1055.17 2182.77 840.5 2266.46 840.5 2310.67 C 840.5 2321.84 837.338 2332.78 831.379 2342.23 L 803.729 2386.07 C 801.767 2389.18 797.233 2389.18 795.271 2386.07 L 767.621 2342.23 Z" fill="url(#gradient-1)" style="visibility: hidden;"/>
</svg>