<svg width="265" height="656" viewBox="0 0 265 656" fill="none" xmlns="http://www.w3.org/2000/svg">
<mask id="path-1-inside-1_2483_35" fill="#F5F5F5">
<path fill-rule="evenodd" clip-rule="evenodd" d="M17.4306 67.7457V135.491L22.9981 138.038L28.5656 140.585L41.2775 130.9C48.2689 125.575 58.2652 117.964 63.4927 113.987L72.9961 106.757L73.2822 53.3784C73.4638 19.4145 73.96 0 74.6466 0C75.3321 0 75.8294 18.9724 76.011 52.1015L76.2971 104.204L97.2062 88.1563L118.115 72.1095L118.112 64.4536L118.109 56.7977L122.927 52.5327C125.577 50.1873 128.671 48.2676 129.804 48.2676C131.753 48.2676 131.863 46.983 131.863 24.1338C131.863 3.41273 132.096 0 133.513 0C134.93 0 135.164 3.41273 135.164 24.1338C135.164 45.863 135.345 48.2676 136.986 48.2676C137.987 48.2676 140.464 49.5269 142.488 51.0671C152.824 58.9259 151.487 72.94 139.878 78.4348C135.26 80.6211 135.243 80.6507 135.243 86.6622C135.243 92.6572 135.273 92.7099 139.822 94.8896C145.497 97.608 148.574 101.701 149.391 107.614C150.093 112.696 149.795 112.546 174.775 120.464C180.524 122.286 186.094 124.118 187.153 124.534C188.973 125.25 189.079 121.866 189.079 62.6458C189.079 21.9584 189.462 0 190.17 0C190.875 0 191.362 22.1932 191.546 62.7763L191.829 125.554L212.981 132.508L234.131 139.463L237.574 135.553C239.467 133.403 242.576 131.241 244.482 130.749L247.945 129.854L248.229 64.9275C248.411 23.2628 248.9 0 249.596 0C250.291 0 250.781 23.2726 250.962 64.9561L251.246 129.911L254.856 130.943C256.842 131.512 259.938 133.645 261.733 135.684C264.57 138.905 265 140.251 265 145.9C265 151.588 264.579 152.884 261.644 156.216C259.799 158.312 256.58 160.588 254.492 161.275L250.696 162.525V216.741C250.696 266.15 250.856 270.956 252.492 270.956C255.463 270.956 261.644 275.347 263.376 278.687C265.337 282.466 265.439 291.42 263.562 294.789C261.798 297.952 255.233 302.769 252.683 302.769C250.816 302.769 250.696 304.56 250.696 332.302V361.837L254.492 363.086C256.58 363.773 259.851 366.109 261.762 368.278C265.042 372.004 265.209 372.617 264.779 379.362C264.353 386.025 264.045 386.741 260.149 390.098C257.852 392.077 254.91 393.847 253.61 394.032L251.246 394.368L250.961 448.339L250.675 502.309L255.362 504.4C262.473 507.572 264.284 510.225 264.794 518.218C265.207 524.685 265.018 525.362 261.762 529.06C259.851 531.228 256.58 533.565 254.492 534.252L250.696 535.501V595.751C250.696 635.186 250.316 656 249.596 656C248.875 656 248.495 635.186 248.495 595.752V535.505L245.13 534.768C243.278 534.362 240.076 532.349 238.014 530.294C235.952 528.237 233.629 526.566 232.852 526.579C232.077 526.592 222.528 529.463 211.635 532.959L191.829 539.315L191.544 597.658C191.361 635.287 190.873 656 190.169 656C189.463 656 189.079 635.732 189.079 598.408C189.079 560.872 188.697 540.816 187.982 540.816C186.803 540.816 161.858 548.678 154.144 551.482C149.822 553.052 149.468 553.482 149.46 557.146C149.449 563.49 142.553 571.504 137.089 571.524C135.468 571.531 135.164 572.58 135.164 578.148C135.164 583.499 135.532 584.874 137.089 585.338C144.906 587.67 149.468 593.408 149.468 600.909C149.468 607.594 146.011 612.924 139.939 615.602L135.164 617.708V636.854C135.164 653.141 134.917 656 133.513 656C132.109 656 131.863 653.147 131.863 636.9V617.801L127.186 615.525C120.158 612.105 117.259 607.135 117.728 599.308L118.109 592.969L107.656 584.964C85.4252 567.939 76.9991 561.659 76.3851 561.659C76.0341 561.659 75.7469 582.886 75.7469 608.829C75.7469 639.545 75.3629 656 74.6466 656C73.9292 656 73.5452 639.086 73.543 607.458L73.5397 558.916L61.3197 549.592C54.5979 544.464 44.4762 536.679 38.8261 532.295L28.5535 524.321L24.9171 526.531C22.9178 527.747 20.4145 528.742 19.356 528.745C17.5438 528.749 17.4306 532.512 17.4306 592.375C17.4306 634.06 17.0509 656 16.3302 656C15.6095 656 15.2299 634.282 15.2299 593.039V530.079L10.0045 527.494C2.8239 523.942 -0.514369 518.772 0.102905 512.16C0.715777 505.587 4.37755 500.555 10.4259 497.97L15.2299 495.917V464.182V432.447L10.0045 429.862C2.8239 426.31 -0.514369 421.14 0.102905 414.528C0.715777 407.955 4.37755 402.923 10.4259 400.338L15.2299 398.285V301.762V205.24L10.4524 203.133C4.54266 200.526 0.803822 195.475 0.0853198 189.127C-0.654088 182.583 3.46431 176.216 10.4238 173.148C13.1382 171.95 15.2068 170.522 15.0198 169.972C14.8327 169.422 12.456 167.854 9.73714 166.487C2.8085 163.001 -0.504466 157.761 0.102905 151.251C0.715777 144.678 4.37755 139.646 10.4259 137.06L15.2299 135.008V67.5044C15.2299 23.2331 15.6084 0 16.3302 0C17.052 0 17.4306 23.3132 17.4306 67.7457ZM126.69 52.6116C119.921 56.7264 117.994 64.3582 122.067 70.927C127.692 80.0024 139.575 80.0287 145.11 70.9763C149.139 64.3911 146.64 55.7545 139.668 52.1608C135.241 49.8779 130.941 50.0271 126.69 52.6116ZM107.582 83.3811C101.269 88.2134 91.522 95.6784 85.9247 99.9698L75.7469 107.773V139.354V170.935L80.6564 173.305C89.4754 177.561 93.2517 188.586 88.4125 195.949L86.4078 198.999L97.3064 209.227C103.301 214.851 111.194 222.123 114.846 225.386L121.488 231.319L126.675 228.924L131.861 226.528L131.862 215.371L131.863 204.215L128.728 203.528C127.005 203.15 123.91 201.109 121.851 198.992C118.373 195.413 118.109 194.638 118.109 187.994C118.109 181.008 118.214 180.748 122.742 176.536C125.291 174.167 128.386 172.227 129.619 172.227C131.808 172.227 131.863 171.645 131.863 148.642C131.863 125.639 131.808 125.057 129.619 125.057C128.386 125.057 125.291 123.117 122.742 120.748C118.216 116.538 118.109 116.274 118.109 109.301C118.109 102.898 118.441 101.818 121.345 98.796C123.125 96.9443 126.22 94.8381 128.222 94.1162C131.773 92.8361 131.863 92.6463 131.863 86.4417C131.863 81.808 131.456 80.0803 130.366 80.0803C129.542 80.0803 127.044 78.8461 124.815 77.3378C122.586 75.8294 120.38 74.5953 119.912 74.5953C119.445 74.5953 113.897 78.5489 107.582 83.3811ZM126.69 97.5882C117.857 102.957 117.631 114.472 126.239 120.582C131.296 124.173 137.462 123.658 142.144 119.256C149.234 112.588 148.423 102.504 140.404 97.6288C135.861 94.8666 131.188 94.8534 126.69 97.5882ZM55.9413 123.008C47.1664 129.714 37.8501 136.738 35.238 138.618C30.7355 141.858 30.533 142.238 31.345 145.888C32.1439 149.479 32.1967 154.571 31.4859 159.516C31.2537 161.135 34.1993 163.468 44.3881 169.735C51.6502 174.202 58.2356 178.134 59.0234 178.471C59.8101 178.81 61.5507 178.061 62.8898 176.806C64.2289 175.552 67.1744 173.756 69.4355 172.813L73.5463 171.101V140.949C73.5463 124.365 73.1755 110.8 72.7211 110.806C72.2666 110.811 64.7163 116.303 55.9413 123.008ZM147.41 117.661C145.811 120.639 139.606 125.057 137.021 125.057C136 125.057 135.153 125.55 135.139 126.154C135.126 126.757 135.101 137.248 135.084 149.465L135.055 171.679L138.445 172.671C140.309 173.216 143.355 175.388 145.214 177.498L148.593 181.336L157.007 178.473C161.636 176.898 170.621 173.736 176.975 171.444L188.529 167.278L188.828 147.345C189.127 127.445 189.124 127.413 186.627 126.69C185.253 126.293 176.569 123.541 167.332 120.576C158.094 117.61 150.132 115.184 149.637 115.184C149.143 115.184 148.141 116.298 147.41 117.661ZM191.869 129.222C190.812 130.276 191.234 165.645 192.304 165.645C193.199 165.645 203.527 161.941 227.027 153.191C233.486 150.787 233.616 150.656 233.629 146.569C233.636 144.276 233.146 142.084 232.541 141.698C230.301 140.269 192.438 128.655 191.869 129.222ZM240.951 135.514C236.536 139.218 234.731 144.721 236.338 149.578C240.882 163.303 260.59 162.282 262.481 148.222C263.695 139.204 258.163 132.736 249.235 132.736C245.52 132.736 243.426 133.438 240.951 135.514ZM10.0453 140.008C5.50981 142.238 1.60259 149.842 2.7029 154.297C4.41498 161.224 9.68438 165.645 16.2235 165.645C20.957 165.645 24.2657 163.851 27.0781 159.758C32.0768 152.486 29.3007 143.135 21.132 139.733C16.5041 137.805 14.4212 137.857 10.0453 140.008ZM212.185 161.186L191.829 168.619L191.527 185.107L191.223 201.594L194.21 202.342C205.341 205.127 210.066 219.403 202.734 228.092C201.28 229.814 198.108 232.014 195.685 232.981L191.279 234.738V249.957V265.175L212.393 273L233.508 280.825L236.572 277.118C238.259 275.079 241.631 272.615 244.067 271.644L248.495 269.877V216.265V162.653L243.498 160.75C240.75 159.703 237.722 157.662 236.769 156.212C235.818 154.764 234.476 153.618 233.79 153.666C233.103 153.715 223.381 157.099 212.185 161.186ZM22.9321 166.348C20.2088 167.791 17.8343 169.404 17.655 169.929C17.4756 170.456 19.5608 171.963 22.2895 173.279C30.2844 177.139 34.0078 185.259 31.3318 193.002L29.8079 197.41L45.4114 212.518C65.821 232.28 63.5159 230.721 68.9613 228.44L73.5243 226.528L73.5353 215.949L73.5463 205.37L68.377 202.785C61.0127 199.103 58.6844 195.449 58.7285 187.645L58.7647 181.289L44.496 172.644C36.6486 167.89 29.7001 163.937 29.0553 163.861C28.4105 163.785 25.6553 164.904 22.9321 166.348ZM169.457 176.548C159.573 180.064 151.096 183.368 150.619 183.892C150.141 184.415 149.474 187.341 149.135 190.394L148.52 195.944L162.336 202.747L176.151 209.549L178.585 206.93C179.924 205.489 182.833 203.657 185.049 202.858L189.079 201.405V185.719C189.079 177.093 188.707 170.061 188.253 170.095C187.8 170.128 179.341 173.033 169.457 176.548ZM9.09017 176.49C5.73202 178.532 2.02619 184.606 2.02619 188.069C2.02619 191.481 6.22826 198.013 9.73714 200.056C18.3251 205.055 29.5339 198.24 29.5339 188.021C29.5339 183.58 28.9948 182.402 25.2625 178.68C21.7701 175.198 20.2143 174.423 16.7351 174.426C14.3937 174.428 10.9541 175.357 9.09017 176.49ZM67.3251 176.675C62.7842 179.575 59.9267 185.578 60.8212 190.334C61.5838 194.384 67.2064 200.498 71.0552 201.461C80.6532 203.862 90.3371 193.856 87.4597 184.509C84.7717 175.775 74.805 171.897 67.3251 176.675ZM126.69 176.572C120.011 180.63 117.969 188.485 121.916 194.936C127.411 203.922 139.615 203.922 145.11 194.936C149.139 188.351 146.64 179.714 139.668 176.121C135.241 173.838 130.941 173.987 126.69 176.572ZM143.993 200.169C143.254 201.056 140.996 202.378 138.975 203.107L135.301 204.432L134.958 215.315L134.613 226.199L139.556 228.558C146.213 231.735 149.465 236.789 149.474 243.968L149.481 249.565L161.302 253.839C167.804 256.189 175.956 259.275 179.418 260.695C189.487 264.827 189.079 265.316 189.079 249.133V234.988L183.871 232.404C177.28 229.133 174.362 224.333 174.528 217.039L174.651 211.674L161.526 205.115C154.308 201.507 147.711 198.555 146.869 198.555C146.026 198.555 144.732 199.281 143.993 200.169ZM24.1853 201.882C22.7571 203.069 20.6522 204.04 19.509 204.04C17.4866 204.04 17.4306 206.676 17.4306 301.497V398.953L21.9606 400.444C26.9053 402.071 31.1899 407.284 32.354 413.089L33.0219 416.417L45.0065 417.814C57.0912 419.222 59.2423 419.007 59.2423 416.391C59.2423 413.674 63.9902 408.951 68.7798 406.904L73.5826 404.852L73.2899 376.103L72.9961 347.354L69.8261 346.509C62.8612 344.653 57.5973 336.866 58.4159 329.627C59.108 323.506 62.9745 318.564 68.8084 316.342L73.5837 314.523L73.2899 287.072L72.9961 259.62L69.6952 258.567C65.3182 257.17 61.5034 253.66 59.6505 249.326C57.6567 244.661 57.747 240.854 59.9619 236.201L61.7807 232.378L45.396 216.015C36.3845 207.015 28.5096 199.669 27.8978 199.688C27.2849 199.709 25.6146 200.697 24.1853 201.882ZM81.8635 202.432C80.6884 203.316 78.8322 204.04 77.7374 204.04C75.9461 204.04 75.7469 205.166 75.7513 215.284L75.7546 226.528L80.6719 228.545C88.5446 231.772 92.2966 240.345 89.6625 249.086C88.8714 251.711 89.7681 252.601 103.201 262.523C122.429 276.727 121.424 276.166 123.824 274.01C124.916 273.028 127.172 271.886 128.837 271.472C131.67 270.767 131.863 270.342 131.863 264.805C131.863 259.5 131.621 258.89 129.517 258.89C128.207 258.89 125.003 256.727 122.261 253.994C117.468 249.216 117.363 248.957 117.856 243.298C118.134 240.108 118.64 236.511 118.981 235.304C119.475 233.552 116.154 229.909 102.477 217.204C93.0592 208.456 85.0489 201.191 84.677 201.061C84.304 200.93 83.0376 201.547 81.8635 202.432ZM183.48 206.541C171.798 214.39 176.954 231.465 191.008 231.465C196.076 231.465 201.501 227.187 203.21 221.841C204.558 217.623 204.482 216.797 202.335 212.377C198.449 204.373 190.411 201.885 183.48 206.541ZM70.2454 230.041C66.852 231.267 61.4428 237.48 60.8014 240.887C58.9044 250.968 70.8253 259.883 80.3913 255.538C84.1269 253.841 87.8514 247.809 87.8459 243.464C87.836 234.556 78.1632 227.179 70.2454 230.041ZM127.903 230.837C123.78 232.625 119.759 238.743 119.759 243.225C119.759 247.173 123.754 253.406 127.494 255.293C134.169 258.659 142.036 255.92 145.639 248.974C149.118 242.267 146.014 233.761 139.026 230.851C134.399 228.923 132.317 228.921 127.903 230.837ZM144.671 254.609C142.942 256.417 140.094 258.181 138.345 258.53C135.31 259.134 135.164 259.436 135.164 265.06C135.164 269.594 135.549 270.956 136.829 270.956C139.8 270.956 145.964 275.773 147.738 279.482C149.693 283.569 149.999 289.857 148.389 292.856C147.472 294.564 148.64 295.878 156.193 301.633C161.078 305.355 165.72 308.648 166.509 308.95C167.902 309.483 171.373 308.739 183.302 305.352L189.079 303.71V285.319V266.927L169.089 259.344C158.095 255.172 148.811 251.662 148.459 251.542C148.105 251.421 146.401 252.802 144.671 254.609ZM82.8989 256.77C81.0834 257.93 78.7309 258.881 77.6724 258.884C75.8888 258.89 75.7469 260.951 75.7469 286.777V314.666L79.543 315.916C83.9992 317.381 90.0509 323.802 90.0509 327.063C90.0509 329.098 90.4921 329.26 94.1771 328.59C96.447 328.177 102.512 326.695 107.656 325.296C112.8 323.897 120.351 321.905 124.436 320.867L131.863 318.981V310.962C131.863 303.039 131.825 302.935 128.728 302.257C127.005 301.88 123.91 299.839 121.851 297.722C118.48 294.254 118.11 293.255 118.123 287.625C118.132 284.19 118.517 280.614 118.98 279.681C119.622 278.39 116.863 275.773 107.413 268.712C92.6091 257.65 88.0154 254.474 86.9767 254.582C86.5498 254.626 84.7144 255.611 82.8989 256.77ZM191.279 285.766C191.279 298.651 191.613 302.763 192.655 302.743C193.412 302.729 202.943 300.373 213.836 297.51L233.641 292.304L233.257 287.938C233.046 285.537 232.734 283.425 232.563 283.246C232.392 283.066 227.614 281.239 221.944 279.185C216.274 277.131 207.674 273.948 202.833 272.111C197.991 270.273 193.412 268.769 192.655 268.767C191.614 268.764 191.279 272.893 191.279 285.766ZM126.69 275.301C122.63 277.768 119.757 282.654 119.764 287.082C119.772 293.673 126.807 300.575 133.513 300.575C140.324 300.575 147.259 293.656 147.259 286.863C147.259 279.965 140.311 273.145 133.293 273.155C131.599 273.157 128.627 274.122 126.69 275.301ZM242.235 275.429C240.09 276.799 238.028 279.488 236.936 282.339C235.28 286.663 235.283 287.344 236.981 291.577C240.09 299.322 248.041 302.567 255.054 298.952C260.175 296.312 262.799 292.122 262.799 286.585C262.799 282.337 262.22 281.089 258.528 277.409C255.026 273.917 253.49 273.154 250.001 273.169C247.622 273.179 244.197 274.176 242.235 275.429ZM211.635 300.478L191.829 305.692L191.51 309.99C191.198 314.191 191.318 314.346 196.845 316.86C201.532 318.992 202.873 320.277 204.692 324.377C208.584 333.148 205.237 341.902 196.463 345.895L191.193 348.294L191.512 353.779L191.829 359.264L201.182 361.749C206.326 363.117 215.858 365.628 222.364 367.331L234.192 370.428L237.693 367.314C239.617 365.6 242.834 363.607 244.844 362.882L248.495 361.566V332.731V303.896L244.919 302.402C242.953 301.58 239.786 299.599 237.884 298C235.98 296.399 233.752 295.129 232.933 295.177C232.112 295.224 222.528 297.609 211.635 300.478ZM143.993 298.898C143.254 299.785 140.965 301.118 138.907 301.861L135.164 303.21V310.541V317.874L148.911 314.436C156.472 312.544 162.661 310.684 162.665 310.303C162.67 309.674 146.513 297.284 145.687 297.284C145.493 297.284 144.732 298.01 143.993 298.898ZM178.351 309.116C174.519 310.071 171.474 311.434 171.474 312.195C171.474 312.946 173.208 314.629 175.326 315.934C179.086 318.25 179.298 318.262 184.128 316.422C188.64 314.706 189.079 314.211 189.079 310.847C189.079 306.581 188.743 306.528 178.351 309.116ZM157.17 314.756C153.236 315.833 146.676 317.581 142.591 318.639L135.164 320.565V332.467V344.37L140.39 345.903C143.264 346.746 150.361 348.571 156.159 349.956L166.702 352.476L172.941 347.881C179.01 343.41 179.134 343.216 177.489 340.714C174.273 335.82 173.704 331.588 175.468 325.668C176.379 322.608 176.968 320.025 176.775 319.927C176.582 319.83 174.35 318.15 171.814 316.196C166.533 312.128 166.708 312.145 157.17 314.756ZM69.6017 318.576C65.7869 320.246 61.7136 324.9 60.764 328.668C59.8959 332.116 62.0701 338.144 65.2577 341.13C68.7875 344.436 76.4214 345.298 81.0471 342.912C87.605 339.532 89.7901 330.637 85.7047 323.957C82.2398 318.291 75.4399 316.02 69.6017 318.576ZM187.014 318.141C175.699 320.769 173.338 337.531 183.541 342.791C195.114 348.757 208.209 337.29 202.617 326.087C199.302 319.442 193.699 316.589 187.014 318.141ZM111.783 326.815C101.041 329.579 92.2526 332.19 92.2526 332.619C92.2515 333.049 94.3564 333.928 96.9278 334.574C99.4993 335.219 108.208 337.5 116.279 339.64C124.35 341.781 131.176 343.311 131.449 343.039C131.723 342.767 131.803 337.874 131.629 332.167L131.312 321.792L111.783 326.815ZM88.0539 339.583C86.4815 342.028 83.6394 344.368 80.6268 345.697L75.7469 347.849L75.8063 376.593L75.8647 405.338L81.8096 408.153L87.7546 410.966L103.777 399.067C117.893 388.585 119.666 386.92 118.679 385.081C118.063 383.933 117.559 380.812 117.559 378.148C117.559 371.824 121.103 366.498 127.186 363.681L131.863 361.515L131.859 353.808L131.857 346.1L112.879 341.253C102.441 338.586 93.1593 336.229 92.2515 336.013C91.2976 335.788 89.5272 337.293 88.0539 339.583ZM176.498 348.525C173.735 350.671 171.474 352.795 171.474 353.244C171.474 354.092 184.345 357.619 187.439 357.619C188.845 357.619 189.132 356.606 188.864 352.582C188.565 348.091 188.149 347.388 185.025 346.084C181.692 344.693 181.279 344.811 176.498 348.525ZM135.164 354.769C135.164 361.676 135.221 361.813 138.668 363.01C140.596 363.68 143.053 365.022 144.129 365.993C145.952 367.638 146.637 367.359 154.103 361.928C158.513 358.72 162.354 355.918 162.639 355.7C163.777 354.833 159.537 353.268 148.749 350.573C142.524 349.018 136.921 347.746 136.297 347.746C135.637 347.746 135.164 350.68 135.164 354.769ZM156.943 362.763C148.884 368.86 147.531 370.322 148.416 371.97C150.222 375.335 149.613 382.905 147.225 386.756C145.97 388.782 142.824 391.415 140.073 392.742C135.27 395.061 135.164 395.227 135.164 400.391C135.164 405.353 135.378 405.746 138.709 406.903C140.659 407.581 143.539 409.364 145.109 410.864L147.967 413.593L168.248 406.007L188.529 398.422L188.829 379.793L189.129 361.164L180.577 358.898C165.949 355.022 167.51 354.768 156.943 362.763ZM191.279 378.945C191.279 388.262 191.651 396.093 192.105 396.35C192.873 396.785 231.46 382.723 232.367 381.679C232.594 381.418 233.066 379.358 233.415 377.1L234.049 372.996L228.344 371.399C221.203 369.399 192.408 362.007 191.76 362.007C191.495 362.007 191.279 369.629 191.279 378.945ZM127.743 366.005C123.148 368.264 119.759 373.776 119.759 378.995C119.759 382.31 120.588 383.933 124.031 387.367C127.722 391.047 128.973 391.625 133.235 391.625C140.623 391.625 147.267 385.28 147.267 378.225C147.267 374.132 143.54 368.367 139.497 366.205C134.927 363.762 132.395 363.719 127.743 366.005ZM243.544 366.221C239.289 368.815 237.628 370.875 236.428 375.043C234.128 383.043 240.645 391.625 249.019 391.625C257.738 391.625 263.651 384.834 262.485 376.162C261.789 370.996 259.291 367.798 254.307 365.695C249.607 363.711 247.492 363.815 243.544 366.221ZM221.538 388.541C215.486 390.932 207.255 394.034 203.245 395.436C190.293 399.962 191.279 398.291 191.279 415.711V430.943L194.645 431.68C199.292 432.697 205.137 438.818 206.038 443.611C207.58 451.81 202.776 460.177 195.13 462.608L191.829 463.658L191.526 479.695C191.245 494.478 191.384 495.817 193.303 496.842C195.731 498.138 232.581 511.197 233.807 511.197C234.264 511.197 236.146 509.777 237.99 508.041C239.835 506.305 242.829 504.412 244.644 503.835L247.945 502.787V448.647V394.507L244.644 393.601C240.775 392.538 237.239 389.769 235.415 386.37C234.7 385.037 233.76 384.002 233.328 384.069C232.895 384.137 227.59 386.149 221.538 388.541ZM119.255 390.455C118.906 391.018 111.935 396.324 103.764 402.248C89.2411 412.774 88.9264 413.09 89.7362 416.308C92.0964 425.684 88.7283 433.174 80.5244 436.792L75.7469 438.899V449.651V460.403L80.3187 462.194L84.8894 463.984L96.3403 453.309C102.637 447.439 110.522 440.167 113.859 437.15C119.581 431.979 119.862 431.489 118.744 428.577C115.481 420.077 118.983 411.359 127.186 407.56C131.729 405.456 131.863 405.246 131.863 400.17C131.863 395.272 131.63 394.849 128.146 393.397C126.101 392.546 124.092 391.305 123.68 390.64C122.765 389.166 120.122 389.054 119.255 390.455ZM10.1762 403.223C6.70363 404.931 2.02619 411.802 2.02619 415.194C2.02619 418.73 5.69901 424.793 9.09017 426.854C10.9541 427.987 14.3937 428.916 16.7351 428.919C20.2143 428.922 21.7701 428.146 25.2625 424.665C28.9541 420.984 29.5339 419.737 29.5339 415.488C29.5339 409.952 26.9097 405.761 21.7889 403.122C17.8091 401.069 14.4938 401.099 10.1762 403.223ZM168.173 408.579L150.018 415.526L149.36 422.228C148.54 430.57 144.731 435.699 138.261 437.17C135.325 437.838 135.304 437.911 134.96 448.913L134.613 459.985L138.465 461.563C140.583 462.431 143.355 464.096 144.625 465.265C146.925 467.38 146.997 467.359 160.766 460.559L174.595 453.73L174.464 448.12C174.286 440.535 177.557 435.289 184.154 432.585L189.071 430.569L189.074 416.033C189.078 405.099 188.738 401.515 187.703 401.566C186.947 401.604 178.158 404.76 168.173 408.579ZM68.9371 409.45C62.2043 412.572 59.0662 420.973 62.1845 427.524C68.5036 440.801 87.8503 436.315 87.8503 421.572C87.8503 412.561 77.0937 405.668 68.9371 409.45ZM127.759 409.707C121.152 412.57 117.929 421.413 121.167 427.793C123.043 431.489 129.299 435.505 133.181 435.505C140.313 435.505 147.259 428.74 147.259 421.793C147.259 417.108 143.457 411.505 139.026 409.66C134.369 407.719 132.323 407.728 127.759 409.707ZM30.0841 423.167C28.5623 426.009 26.2715 428.045 22.657 429.767L17.4306 432.257L17.4493 464.322L17.468 496.388L23.4338 498.962C26.7149 500.378 29.8014 501.316 30.2921 501.046C30.7828 500.776 37.433 496.746 45.0703 492.09L58.9551 483.624L58.4115 478.817C57.9791 474.988 58.4478 473.023 60.7178 469.161C63.3013 464.766 68.8601 460.736 72.337 460.736C73.1348 460.736 73.5463 457.02 73.5463 449.817V438.899L68.87 436.813C63.177 434.273 60.83 431.76 58.8737 426.108L57.3795 421.793L47.0332 420.516C31.9315 418.651 32.5532 418.553 30.0841 423.167ZM115.899 438.546C112.868 441.398 105.038 448.762 98.4991 454.91L86.6102 466.086L88.4576 468.896C89.4996 470.481 90.3403 474.018 90.3855 477.006C90.4878 483.742 87.1274 488.729 80.5244 491.641L75.7469 493.749V525.46V557.172L90.326 568.394C98.3451 574.566 108.284 582.291 112.415 585.561L119.924 591.506L122.448 589.141C123.837 587.841 126.4 586.398 128.143 585.935C131.152 585.138 131.329 584.75 131.64 578.313C131.942 572.065 131.787 571.532 129.672 571.532C128.409 571.532 125.291 569.592 122.742 567.223C118.216 563.013 118.109 562.749 118.109 555.776C118.109 549.373 118.441 548.293 121.345 545.271C123.125 543.419 126.22 541.313 128.222 540.591L131.863 539.278V516.559V493.841L127.186 491.566C114.235 485.263 114.235 468.407 127.186 462.41L131.863 460.244V449.058V437.873L128.638 437.167C126.864 436.779 124.823 435.752 124.102 434.886C122.256 432.668 122.042 432.763 115.899 438.546ZM185.134 434.87C180.013 437.093 176.969 441.603 177.014 446.897C177.062 452.39 178.834 455.796 183.101 458.601C196.014 467.087 211.127 449.022 200.223 438.134C195.311 433.23 191.042 432.306 185.134 434.87ZM162.146 462.643C151.559 467.933 148.332 470.031 148.822 471.303C149.177 472.227 149.468 474.858 149.468 477.152C149.468 480.17 150 481.484 151.393 481.908C152.453 482.229 160.899 485.248 170.163 488.617C179.427 491.986 187.473 494.742 188.043 494.742C188.642 494.742 189.079 488.101 189.079 478.973V463.204L185.706 462.531C183.851 462.162 180.935 460.465 179.227 458.76L176.118 455.662L162.146 462.643ZM69.6952 463.982C65.9058 465.556 61.3834 471.205 60.7992 475.1C59.689 482.487 67.1336 490.808 74.6619 490.595C79.2095 490.465 84.2765 487.48 86.1811 483.809C91.9556 472.675 80.87 459.344 69.6952 463.982ZM129.051 463.982C127.808 464.484 125.153 466.754 123.153 469.027C119.887 472.734 119.571 473.671 120.078 478.154C120.884 485.279 126.473 490.354 133.513 490.354C143.93 490.354 150.564 478.927 145.184 470.25C141.577 464.431 134.626 461.731 129.051 463.982ZM146.256 486.938C145.013 488.68 142.007 490.897 139.579 491.866L135.164 493.628V516.453V539.278L139.022 540.669C141.145 541.435 144.434 543.987 146.332 546.343C148.231 548.697 150.203 550.365 150.715 550.049C151.228 549.733 159.946 546.854 170.088 543.652L188.529 537.828V517.844V497.859L168.777 490.816C157.914 486.942 148.911 483.773 148.771 483.773C148.631 483.773 147.499 485.198 146.256 486.938ZM45.7283 494.594C37.9931 499.34 31.4001 503.485 31.0777 503.808C30.7542 504.13 31.027 506.384 31.6839 508.815C32.6114 512.25 32.5323 514.237 31.3263 517.727L29.7749 522.216L39.8317 529.858C45.3641 534.062 54.698 541.209 60.5737 545.74C66.4504 550.272 71.7726 553.98 72.402 553.98C73.1667 553.98 73.5463 543.987 73.5463 523.898V493.815L69.8569 492.602C67.8279 491.934 65.0178 490.168 63.6138 488.677C62.2087 487.186 60.7739 485.967 60.4262 485.967C60.0774 485.967 53.4634 489.85 45.7283 494.594ZM9.84062 501.208C6.05225 503.221 2.15607 508.971 2.07244 512.677C1.98992 516.28 5.60989 522.371 9.09017 524.486C10.9541 525.619 14.3937 526.549 16.7351 526.551C20.2143 526.554 21.7701 525.778 25.2625 522.297C32.2704 515.31 31.1503 506.476 22.5976 501.276C18.2645 498.642 14.7073 498.624 9.84062 501.208ZM191.857 500.017C190.963 500.909 191.175 536.428 192.075 536.428C193.54 536.428 231.431 524.136 232.169 523.421C232.571 523.033 233.066 520.797 233.269 518.453L233.641 514.19L213.038 506.815C201.707 502.759 192.175 499.7 191.857 500.017ZM241.781 508.221C234.493 513.11 233.914 522.828 240.543 528.975C244.365 532.518 248.82 533.563 253.522 532.016C264.35 528.453 266.219 514.121 256.674 507.847C252.319 504.986 246.382 505.134 241.781 508.221ZM127.743 543.718C123.458 545.823 119.758 551.406 119.764 555.755C119.772 562.43 126.764 569.338 133.513 569.338C139.943 569.338 147.253 562.466 147.262 556.413C147.27 551.961 144.189 546.404 140.456 544.135C136.087 541.48 132.535 541.362 127.743 543.718ZM128.012 588.571C118.921 593.067 117.251 604.009 124.627 610.748C129.175 614.905 135.453 615.564 140.753 612.443C144.229 610.396 147.267 605.044 147.267 600.967C147.267 596.825 143.561 591.067 139.497 588.894C134.985 586.482 132.386 586.409 128.012 588.571Z"/>
</mask>
<path fill-rule="evenodd" clip-rule="evenodd" d="M17.4306 67.7457V135.491L22.9981 138.038L28.5656 140.585L41.2775 130.9C48.2689 125.575 58.2652 117.964 63.4927 113.987L72.9961 106.757L73.2822 53.3784C73.4638 19.4145 73.96 0 74.6466 0C75.3321 0 75.8294 18.9724 76.011 52.1015L76.2971 104.204L97.2062 88.1563L118.115 72.1095L118.112 64.4536L118.109 56.7977L122.927 52.5327C125.577 50.1873 128.671 48.2676 129.804 48.2676C131.753 48.2676 131.863 46.983 131.863 24.1338C131.863 3.41273 132.096 0 133.513 0C134.93 0 135.164 3.41273 135.164 24.1338C135.164 45.863 135.345 48.2676 136.986 48.2676C137.987 48.2676 140.464 49.5269 142.488 51.0671C152.824 58.9259 151.487 72.94 139.878 78.4348C135.26 80.6211 135.243 80.6507 135.243 86.6622C135.243 92.6572 135.273 92.7099 139.822 94.8896C145.497 97.608 148.574 101.701 149.391 107.614C150.093 112.696 149.795 112.546 174.775 120.464C180.524 122.286 186.094 124.118 187.153 124.534C188.973 125.25 189.079 121.866 189.079 62.6458C189.079 21.9584 189.462 0 190.17 0C190.875 0 191.362 22.1932 191.546 62.7763L191.829 125.554L212.981 132.508L234.131 139.463L237.574 135.553C239.467 133.403 242.576 131.241 244.482 130.749L247.945 129.854L248.229 64.9275C248.411 23.2628 248.9 0 249.596 0C250.291 0 250.781 23.2726 250.962 64.9561L251.246 129.911L254.856 130.943C256.842 131.512 259.938 133.645 261.733 135.684C264.57 138.905 265 140.251 265 145.9C265 151.588 264.579 152.884 261.644 156.216C259.799 158.312 256.58 160.588 254.492 161.275L250.696 162.525V216.741C250.696 266.15 250.856 270.956 252.492 270.956C255.463 270.956 261.644 275.347 263.376 278.687C265.337 282.466 265.439 291.42 263.562 294.789C261.798 297.952 255.233 302.769 252.683 302.769C250.816 302.769 250.696 304.56 250.696 332.302V361.837L254.492 363.086C256.58 363.773 259.851 366.109 261.762 368.278C265.042 372.004 265.209 372.617 264.779 379.362C264.353 386.025 264.045 386.741 260.149 390.098C257.852 392.077 254.91 393.847 253.61 394.032L251.246 394.368L250.961 448.339L250.675 502.309L255.362 504.4C262.473 507.572 264.284 510.225 264.794 518.218C265.207 524.685 265.018 525.362 261.762 529.06C259.851 531.228 256.58 533.565 254.492 534.252L250.696 535.501V595.751C250.696 635.186 250.316 656 249.596 656C248.875 656 248.495 635.186 248.495 595.752V535.505L245.13 534.768C243.278 534.362 240.076 532.349 238.014 530.294C235.952 528.237 233.629 526.566 232.852 526.579C232.077 526.592 222.528 529.463 211.635 532.959L191.829 539.315L191.544 597.658C191.361 635.287 190.873 656 190.169 656C189.463 656 189.079 635.732 189.079 598.408C189.079 560.872 188.697 540.816 187.982 540.816C186.803 540.816 161.858 548.678 154.144 551.482C149.822 553.052 149.468 553.482 149.46 557.146C149.449 563.49 142.553 571.504 137.089 571.524C135.468 571.531 135.164 572.58 135.164 578.148C135.164 583.499 135.532 584.874 137.089 585.338C144.906 587.67 149.468 593.408 149.468 600.909C149.468 607.594 146.011 612.924 139.939 615.602L135.164 617.708V636.854C135.164 653.141 134.917 656 133.513 656C132.109 656 131.863 653.147 131.863 636.9V617.801L127.186 615.525C120.158 612.105 117.259 607.135 117.728 599.308L118.109 592.969L107.656 584.964C85.4252 567.939 76.9991 561.659 76.3851 561.659C76.0341 561.659 75.7469 582.886 75.7469 608.829C75.7469 639.545 75.3629 656 74.6466 656C73.9292 656 73.5452 639.086 73.543 607.458L73.5397 558.916L61.3197 549.592C54.5979 544.464 44.4762 536.679 38.8261 532.295L28.5535 524.321L24.9171 526.531C22.9178 527.747 20.4145 528.742 19.356 528.745C17.5438 528.749 17.4306 532.512 17.4306 592.375C17.4306 634.06 17.0509 656 16.3302 656C15.6095 656 15.2299 634.282 15.2299 593.039V530.079L10.0045 527.494C2.8239 523.942 -0.514369 518.772 0.102905 512.16C0.715777 505.587 4.37755 500.555 10.4259 497.97L15.2299 495.917V464.182V432.447L10.0045 429.862C2.8239 426.31 -0.514369 421.14 0.102905 414.528C0.715777 407.955 4.37755 402.923 10.4259 400.338L15.2299 398.285V301.762V205.24L10.4524 203.133C4.54266 200.526 0.803822 195.475 0.0853198 189.127C-0.654088 182.583 3.46431 176.216 10.4238 173.148C13.1382 171.95 15.2068 170.522 15.0198 169.972C14.8327 169.422 12.456 167.854 9.73714 166.487C2.8085 163.001 -0.504466 157.761 0.102905 151.251C0.715777 144.678 4.37755 139.646 10.4259 137.06L15.2299 135.008V67.5044C15.2299 23.2331 15.6084 0 16.3302 0C17.052 0 17.4306 23.3132 17.4306 67.7457ZM126.69 52.6116C119.921 56.7264 117.994 64.3582 122.067 70.927C127.692 80.0024 139.575 80.0287 145.11 70.9763C149.139 64.3911 146.64 55.7545 139.668 52.1608C135.241 49.8779 130.941 50.0271 126.69 52.6116ZM107.582 83.3811C101.269 88.2134 91.522 95.6784 85.9247 99.9698L75.7469 107.773V139.354V170.935L80.6564 173.305C89.4754 177.561 93.2517 188.586 88.4125 195.949L86.4078 198.999L97.3064 209.227C103.301 214.851 111.194 222.123 114.846 225.386L121.488 231.319L126.675 228.924L131.861 226.528L131.862 215.371L131.863 204.215L128.728 203.528C127.005 203.15 123.91 201.109 121.851 198.992C118.373 195.413 118.109 194.638 118.109 187.994C118.109 181.008 118.214 180.748 122.742 176.536C125.291 174.167 128.386 172.227 129.619 172.227C131.808 172.227 131.863 171.645 131.863 148.642C131.863 125.639 131.808 125.057 129.619 125.057C128.386 125.057 125.291 123.117 122.742 120.748C118.216 116.538 118.109 116.274 118.109 109.301C118.109 102.898 118.441 101.818 121.345 98.796C123.125 96.9443 126.22 94.8381 128.222 94.1162C131.773 92.8361 131.863 92.6463 131.863 86.4417C131.863 81.808 131.456 80.0803 130.366 80.0803C129.542 80.0803 127.044 78.8461 124.815 77.3378C122.586 75.8294 120.38 74.5953 119.912 74.5953C119.445 74.5953 113.897 78.5489 107.582 83.3811ZM126.69 97.5882C117.857 102.957 117.631 114.472 126.239 120.582C131.296 124.173 137.462 123.658 142.144 119.256C149.234 112.588 148.423 102.504 140.404 97.6288C135.861 94.8666 131.188 94.8534 126.69 97.5882ZM55.9413 123.008C47.1664 129.714 37.8501 136.738 35.238 138.618C30.7355 141.858 30.533 142.238 31.345 145.888C32.1439 149.479 32.1967 154.571 31.4859 159.516C31.2537 161.135 34.1993 163.468 44.3881 169.735C51.6502 174.202 58.2356 178.134 59.0234 178.471C59.8101 178.81 61.5507 178.061 62.8898 176.806C64.2289 175.552 67.1744 173.756 69.4355 172.813L73.5463 171.101V140.949C73.5463 124.365 73.1755 110.8 72.7211 110.806C72.2666 110.811 64.7163 116.303 55.9413 123.008ZM147.41 117.661C145.811 120.639 139.606 125.057 137.021 125.057C136 125.057 135.153 125.55 135.139 126.154C135.126 126.757 135.101 137.248 135.084 149.465L135.055 171.679L138.445 172.671C140.309 173.216 143.355 175.388 145.214 177.498L148.593 181.336L157.007 178.473C161.636 176.898 170.621 173.736 176.975 171.444L188.529 167.278L188.828 147.345C189.127 127.445 189.124 127.413 186.627 126.69C185.253 126.293 176.569 123.541 167.332 120.576C158.094 117.61 150.132 115.184 149.637 115.184C149.143 115.184 148.141 116.298 147.41 117.661ZM191.869 129.222C190.812 130.276 191.234 165.645 192.304 165.645C193.199 165.645 203.527 161.941 227.027 153.191C233.486 150.787 233.616 150.656 233.629 146.569C233.636 144.276 233.146 142.084 232.541 141.698C230.301 140.269 192.438 128.655 191.869 129.222ZM240.951 135.514C236.536 139.218 234.731 144.721 236.338 149.578C240.882 163.303 260.59 162.282 262.481 148.222C263.695 139.204 258.163 132.736 249.235 132.736C245.52 132.736 243.426 133.438 240.951 135.514ZM10.0453 140.008C5.50981 142.238 1.60259 149.842 2.7029 154.297C4.41498 161.224 9.68438 165.645 16.2235 165.645C20.957 165.645 24.2657 163.851 27.0781 159.758C32.0768 152.486 29.3007 143.135 21.132 139.733C16.5041 137.805 14.4212 137.857 10.0453 140.008ZM212.185 161.186L191.829 168.619L191.527 185.107L191.223 201.594L194.21 202.342C205.341 205.127 210.066 219.403 202.734 228.092C201.28 229.814 198.108 232.014 195.685 232.981L191.279 234.738V249.957V265.175L212.393 273L233.508 280.825L236.572 277.118C238.259 275.079 241.631 272.615 244.067 271.644L248.495 269.877V216.265V162.653L243.498 160.75C240.75 159.703 237.722 157.662 236.769 156.212C235.818 154.764 234.476 153.618 233.79 153.666C233.103 153.715 223.381 157.099 212.185 161.186ZM22.9321 166.348C20.2088 167.791 17.8343 169.404 17.655 169.929C17.4756 170.456 19.5608 171.963 22.2895 173.279C30.2844 177.139 34.0078 185.259 31.3318 193.002L29.8079 197.41L45.4114 212.518C65.821 232.28 63.5159 230.721 68.9613 228.44L73.5243 226.528L73.5353 215.949L73.5463 205.37L68.377 202.785C61.0127 199.103 58.6844 195.449 58.7285 187.645L58.7647 181.289L44.496 172.644C36.6486 167.89 29.7001 163.937 29.0553 163.861C28.4105 163.785 25.6553 164.904 22.9321 166.348ZM169.457 176.548C159.573 180.064 151.096 183.368 150.619 183.892C150.141 184.415 149.474 187.341 149.135 190.394L148.52 195.944L162.336 202.747L176.151 209.549L178.585 206.93C179.924 205.489 182.833 203.657 185.049 202.858L189.079 201.405V185.719C189.079 177.093 188.707 170.061 188.253 170.095C187.8 170.128 179.341 173.033 169.457 176.548ZM9.09017 176.49C5.73202 178.532 2.02619 184.606 2.02619 188.069C2.02619 191.481 6.22826 198.013 9.73714 200.056C18.3251 205.055 29.5339 198.24 29.5339 188.021C29.5339 183.58 28.9948 182.402 25.2625 178.68C21.7701 175.198 20.2143 174.423 16.7351 174.426C14.3937 174.428 10.9541 175.357 9.09017 176.49ZM67.3251 176.675C62.7842 179.575 59.9267 185.578 60.8212 190.334C61.5838 194.384 67.2064 200.498 71.0552 201.461C80.6532 203.862 90.3371 193.856 87.4597 184.509C84.7717 175.775 74.805 171.897 67.3251 176.675ZM126.69 176.572C120.011 180.63 117.969 188.485 121.916 194.936C127.411 203.922 139.615 203.922 145.11 194.936C149.139 188.351 146.64 179.714 139.668 176.121C135.241 173.838 130.941 173.987 126.69 176.572ZM143.993 200.169C143.254 201.056 140.996 202.378 138.975 203.107L135.301 204.432L134.958 215.315L134.613 226.199L139.556 228.558C146.213 231.735 149.465 236.789 149.474 243.968L149.481 249.565L161.302 253.839C167.804 256.189 175.956 259.275 179.418 260.695C189.487 264.827 189.079 265.316 189.079 249.133V234.988L183.871 232.404C177.28 229.133 174.362 224.333 174.528 217.039L174.651 211.674L161.526 205.115C154.308 201.507 147.711 198.555 146.869 198.555C146.026 198.555 144.732 199.281 143.993 200.169ZM24.1853 201.882C22.7571 203.069 20.6522 204.04 19.509 204.04C17.4866 204.04 17.4306 206.676 17.4306 301.497V398.953L21.9606 400.444C26.9053 402.071 31.1899 407.284 32.354 413.089L33.0219 416.417L45.0065 417.814C57.0912 419.222 59.2423 419.007 59.2423 416.391C59.2423 413.674 63.9902 408.951 68.7798 406.904L73.5826 404.852L73.2899 376.103L72.9961 347.354L69.8261 346.509C62.8612 344.653 57.5973 336.866 58.4159 329.627C59.108 323.506 62.9745 318.564 68.8084 316.342L73.5837 314.523L73.2899 287.072L72.9961 259.62L69.6952 258.567C65.3182 257.17 61.5034 253.66 59.6505 249.326C57.6567 244.661 57.747 240.854 59.9619 236.201L61.7807 232.378L45.396 216.015C36.3845 207.015 28.5096 199.669 27.8978 199.688C27.2849 199.709 25.6146 200.697 24.1853 201.882ZM81.8635 202.432C80.6884 203.316 78.8322 204.04 77.7374 204.04C75.9461 204.04 75.7469 205.166 75.7513 215.284L75.7546 226.528L80.6719 228.545C88.5446 231.772 92.2966 240.345 89.6625 249.086C88.8714 251.711 89.7681 252.601 103.201 262.523C122.429 276.727 121.424 276.166 123.824 274.01C124.916 273.028 127.172 271.886 128.837 271.472C131.67 270.767 131.863 270.342 131.863 264.805C131.863 259.5 131.621 258.89 129.517 258.89C128.207 258.89 125.003 256.727 122.261 253.994C117.468 249.216 117.363 248.957 117.856 243.298C118.134 240.108 118.64 236.511 118.981 235.304C119.475 233.552 116.154 229.909 102.477 217.204C93.0592 208.456 85.0489 201.191 84.677 201.061C84.304 200.93 83.0376 201.547 81.8635 202.432ZM183.48 206.541C171.798 214.39 176.954 231.465 191.008 231.465C196.076 231.465 201.501 227.187 203.21 221.841C204.558 217.623 204.482 216.797 202.335 212.377C198.449 204.373 190.411 201.885 183.48 206.541ZM70.2454 230.041C66.852 231.267 61.4428 237.48 60.8014 240.887C58.9044 250.968 70.8253 259.883 80.3913 255.538C84.1269 253.841 87.8514 247.809 87.8459 243.464C87.836 234.556 78.1632 227.179 70.2454 230.041ZM127.903 230.837C123.78 232.625 119.759 238.743 119.759 243.225C119.759 247.173 123.754 253.406 127.494 255.293C134.169 258.659 142.036 255.92 145.639 248.974C149.118 242.267 146.014 233.761 139.026 230.851C134.399 228.923 132.317 228.921 127.903 230.837ZM144.671 254.609C142.942 256.417 140.094 258.181 138.345 258.53C135.31 259.134 135.164 259.436 135.164 265.06C135.164 269.594 135.549 270.956 136.829 270.956C139.8 270.956 145.964 275.773 147.738 279.482C149.693 283.569 149.999 289.857 148.389 292.856C147.472 294.564 148.64 295.878 156.193 301.633C161.078 305.355 165.72 308.648 166.509 308.95C167.902 309.483 171.373 308.739 183.302 305.352L189.079 303.71V285.319V266.927L169.089 259.344C158.095 255.172 148.811 251.662 148.459 251.542C148.105 251.421 146.401 252.802 144.671 254.609ZM82.8989 256.77C81.0834 257.93 78.7309 258.881 77.6724 258.884C75.8888 258.89 75.7469 260.951 75.7469 286.777V314.666L79.543 315.916C83.9992 317.381 90.0509 323.802 90.0509 327.063C90.0509 329.098 90.4921 329.26 94.1771 328.59C96.447 328.177 102.512 326.695 107.656 325.296C112.8 323.897 120.351 321.905 124.436 320.867L131.863 318.981V310.962C131.863 303.039 131.825 302.935 128.728 302.257C127.005 301.88 123.91 299.839 121.851 297.722C118.48 294.254 118.11 293.255 118.123 287.625C118.132 284.19 118.517 280.614 118.98 279.681C119.622 278.39 116.863 275.773 107.413 268.712C92.6091 257.65 88.0154 254.474 86.9767 254.582C86.5498 254.626 84.7144 255.611 82.8989 256.77ZM191.279 285.766C191.279 298.651 191.613 302.763 192.655 302.743C193.412 302.729 202.943 300.373 213.836 297.51L233.641 292.304L233.257 287.938C233.046 285.537 232.734 283.425 232.563 283.246C232.392 283.066 227.614 281.239 221.944 279.185C216.274 277.131 207.674 273.948 202.833 272.111C197.991 270.273 193.412 268.769 192.655 268.767C191.614 268.764 191.279 272.893 191.279 285.766ZM126.69 275.301C122.63 277.768 119.757 282.654 119.764 287.082C119.772 293.673 126.807 300.575 133.513 300.575C140.324 300.575 147.259 293.656 147.259 286.863C147.259 279.965 140.311 273.145 133.293 273.155C131.599 273.157 128.627 274.122 126.69 275.301ZM242.235 275.429C240.09 276.799 238.028 279.488 236.936 282.339C235.28 286.663 235.283 287.344 236.981 291.577C240.09 299.322 248.041 302.567 255.054 298.952C260.175 296.312 262.799 292.122 262.799 286.585C262.799 282.337 262.22 281.089 258.528 277.409C255.026 273.917 253.49 273.154 250.001 273.169C247.622 273.179 244.197 274.176 242.235 275.429ZM211.635 300.478L191.829 305.692L191.51 309.99C191.198 314.191 191.318 314.346 196.845 316.86C201.532 318.992 202.873 320.277 204.692 324.377C208.584 333.148 205.237 341.902 196.463 345.895L191.193 348.294L191.512 353.779L191.829 359.264L201.182 361.749C206.326 363.117 215.858 365.628 222.364 367.331L234.192 370.428L237.693 367.314C239.617 365.6 242.834 363.607 244.844 362.882L248.495 361.566V332.731V303.896L244.919 302.402C242.953 301.58 239.786 299.599 237.884 298C235.98 296.399 233.752 295.129 232.933 295.177C232.112 295.224 222.528 297.609 211.635 300.478ZM143.993 298.898C143.254 299.785 140.965 301.118 138.907 301.861L135.164 303.21V310.541V317.874L148.911 314.436C156.472 312.544 162.661 310.684 162.665 310.303C162.67 309.674 146.513 297.284 145.687 297.284C145.493 297.284 144.732 298.01 143.993 298.898ZM178.351 309.116C174.519 310.071 171.474 311.434 171.474 312.195C171.474 312.946 173.208 314.629 175.326 315.934C179.086 318.25 179.298 318.262 184.128 316.422C188.64 314.706 189.079 314.211 189.079 310.847C189.079 306.581 188.743 306.528 178.351 309.116ZM157.17 314.756C153.236 315.833 146.676 317.581 142.591 318.639L135.164 320.565V332.467V344.37L140.39 345.903C143.264 346.746 150.361 348.571 156.159 349.956L166.702 352.476L172.941 347.881C179.01 343.41 179.134 343.216 177.489 340.714C174.273 335.82 173.704 331.588 175.468 325.668C176.379 322.608 176.968 320.025 176.775 319.927C176.582 319.83 174.35 318.15 171.814 316.196C166.533 312.128 166.708 312.145 157.17 314.756ZM69.6017 318.576C65.7869 320.246 61.7136 324.9 60.764 328.668C59.8959 332.116 62.0701 338.144 65.2577 341.13C68.7875 344.436 76.4214 345.298 81.0471 342.912C87.605 339.532 89.7901 330.637 85.7047 323.957C82.2398 318.291 75.4399 316.02 69.6017 318.576ZM187.014 318.141C175.699 320.769 173.338 337.531 183.541 342.791C195.114 348.757 208.209 337.29 202.617 326.087C199.302 319.442 193.699 316.589 187.014 318.141ZM111.783 326.815C101.041 329.579 92.2526 332.19 92.2526 332.619C92.2515 333.049 94.3564 333.928 96.9278 334.574C99.4993 335.219 108.208 337.5 116.279 339.64C124.35 341.781 131.176 343.311 131.449 343.039C131.723 342.767 131.803 337.874 131.629 332.167L131.312 321.792L111.783 326.815ZM88.0539 339.583C86.4815 342.028 83.6394 344.368 80.6268 345.697L75.7469 347.849L75.8063 376.593L75.8647 405.338L81.8096 408.153L87.7546 410.966L103.777 399.067C117.893 388.585 119.666 386.92 118.679 385.081C118.063 383.933 117.559 380.812 117.559 378.148C117.559 371.824 121.103 366.498 127.186 363.681L131.863 361.515L131.859 353.808L131.857 346.1L112.879 341.253C102.441 338.586 93.1593 336.229 92.2515 336.013C91.2976 335.788 89.5272 337.293 88.0539 339.583ZM176.498 348.525C173.735 350.671 171.474 352.795 171.474 353.244C171.474 354.092 184.345 357.619 187.439 357.619C188.845 357.619 189.132 356.606 188.864 352.582C188.565 348.091 188.149 347.388 185.025 346.084C181.692 344.693 181.279 344.811 176.498 348.525ZM135.164 354.769C135.164 361.676 135.221 361.813 138.668 363.01C140.596 363.68 143.053 365.022 144.129 365.993C145.952 367.638 146.637 367.359 154.103 361.928C158.513 358.72 162.354 355.918 162.639 355.7C163.777 354.833 159.537 353.268 148.749 350.573C142.524 349.018 136.921 347.746 136.297 347.746C135.637 347.746 135.164 350.68 135.164 354.769ZM156.943 362.763C148.884 368.86 147.531 370.322 148.416 371.97C150.222 375.335 149.613 382.905 147.225 386.756C145.97 388.782 142.824 391.415 140.073 392.742C135.27 395.061 135.164 395.227 135.164 400.391C135.164 405.353 135.378 405.746 138.709 406.903C140.659 407.581 143.539 409.364 145.109 410.864L147.967 413.593L168.248 406.007L188.529 398.422L188.829 379.793L189.129 361.164L180.577 358.898C165.949 355.022 167.51 354.768 156.943 362.763ZM191.279 378.945C191.279 388.262 191.651 396.093 192.105 396.35C192.873 396.785 231.46 382.723 232.367 381.679C232.594 381.418 233.066 379.358 233.415 377.1L234.049 372.996L228.344 371.399C221.203 369.399 192.408 362.007 191.76 362.007C191.495 362.007 191.279 369.629 191.279 378.945ZM127.743 366.005C123.148 368.264 119.759 373.776 119.759 378.995C119.759 382.31 120.588 383.933 124.031 387.367C127.722 391.047 128.973 391.625 133.235 391.625C140.623 391.625 147.267 385.28 147.267 378.225C147.267 374.132 143.54 368.367 139.497 366.205C134.927 363.762 132.395 363.719 127.743 366.005ZM243.544 366.221C239.289 368.815 237.628 370.875 236.428 375.043C234.128 383.043 240.645 391.625 249.019 391.625C257.738 391.625 263.651 384.834 262.485 376.162C261.789 370.996 259.291 367.798 254.307 365.695C249.607 363.711 247.492 363.815 243.544 366.221ZM221.538 388.541C215.486 390.932 207.255 394.034 203.245 395.436C190.293 399.962 191.279 398.291 191.279 415.711V430.943L194.645 431.68C199.292 432.697 205.137 438.818 206.038 443.611C207.58 451.81 202.776 460.177 195.13 462.608L191.829 463.658L191.526 479.695C191.245 494.478 191.384 495.817 193.303 496.842C195.731 498.138 232.581 511.197 233.807 511.197C234.264 511.197 236.146 509.777 237.99 508.041C239.835 506.305 242.829 504.412 244.644 503.835L247.945 502.787V448.647V394.507L244.644 393.601C240.775 392.538 237.239 389.769 235.415 386.37C234.7 385.037 233.76 384.002 233.328 384.069C232.895 384.137 227.59 386.149 221.538 388.541ZM119.255 390.455C118.906 391.018 111.935 396.324 103.764 402.248C89.2411 412.774 88.9264 413.09 89.7362 416.308C92.0964 425.684 88.7283 433.174 80.5244 436.792L75.7469 438.899V449.651V460.403L80.3187 462.194L84.8894 463.984L96.3403 453.309C102.637 447.439 110.522 440.167 113.859 437.15C119.581 431.979 119.862 431.489 118.744 428.577C115.481 420.077 118.983 411.359 127.186 407.56C131.729 405.456 131.863 405.246 131.863 400.17C131.863 395.272 131.63 394.849 128.146 393.397C126.101 392.546 124.092 391.305 123.68 390.64C122.765 389.166 120.122 389.054 119.255 390.455ZM10.1762 403.223C6.70363 404.931 2.02619 411.802 2.02619 415.194C2.02619 418.73 5.69901 424.793 9.09017 426.854C10.9541 427.987 14.3937 428.916 16.7351 428.919C20.2143 428.922 21.7701 428.146 25.2625 424.665C28.9541 420.984 29.5339 419.737 29.5339 415.488C29.5339 409.952 26.9097 405.761 21.7889 403.122C17.8091 401.069 14.4938 401.099 10.1762 403.223ZM168.173 408.579L150.018 415.526L149.36 422.228C148.54 430.57 144.731 435.699 138.261 437.17C135.325 437.838 135.304 437.911 134.96 448.913L134.613 459.985L138.465 461.563C140.583 462.431 143.355 464.096 144.625 465.265C146.925 467.38 146.997 467.359 160.766 460.559L174.595 453.73L174.464 448.12C174.286 440.535 177.557 435.289 184.154 432.585L189.071 430.569L189.074 416.033C189.078 405.099 188.738 401.515 187.703 401.566C186.947 401.604 178.158 404.76 168.173 408.579ZM68.9371 409.45C62.2043 412.572 59.0662 420.973 62.1845 427.524C68.5036 440.801 87.8503 436.315 87.8503 421.572C87.8503 412.561 77.0937 405.668 68.9371 409.45ZM127.759 409.707C121.152 412.57 117.929 421.413 121.167 427.793C123.043 431.489 129.299 435.505 133.181 435.505C140.313 435.505 147.259 428.74 147.259 421.793C147.259 417.108 143.457 411.505 139.026 409.66C134.369 407.719 132.323 407.728 127.759 409.707ZM30.0841 423.167C28.5623 426.009 26.2715 428.045 22.657 429.767L17.4306 432.257L17.4493 464.322L17.468 496.388L23.4338 498.962C26.7149 500.378 29.8014 501.316 30.2921 501.046C30.7828 500.776 37.433 496.746 45.0703 492.09L58.9551 483.624L58.4115 478.817C57.9791 474.988 58.4478 473.023 60.7178 469.161C63.3013 464.766 68.8601 460.736 72.337 460.736C73.1348 460.736 73.5463 457.02 73.5463 449.817V438.899L68.87 436.813C63.177 434.273 60.83 431.76 58.8737 426.108L57.3795 421.793L47.0332 420.516C31.9315 418.651 32.5532 418.553 30.0841 423.167ZM115.899 438.546C112.868 441.398 105.038 448.762 98.4991 454.91L86.6102 466.086L88.4576 468.896C89.4996 470.481 90.3403 474.018 90.3855 477.006C90.4878 483.742 87.1274 488.729 80.5244 491.641L75.7469 493.749V525.46V557.172L90.326 568.394C98.3451 574.566 108.284 582.291 112.415 585.561L119.924 591.506L122.448 589.141C123.837 587.841 126.4 586.398 128.143 585.935C131.152 585.138 131.329 584.75 131.64 578.313C131.942 572.065 131.787 571.532 129.672 571.532C128.409 571.532 125.291 569.592 122.742 567.223C118.216 563.013 118.109 562.749 118.109 555.776C118.109 549.373 118.441 548.293 121.345 545.271C123.125 543.419 126.22 541.313 128.222 540.591L131.863 539.278V516.559V493.841L127.186 491.566C114.235 485.263 114.235 468.407 127.186 462.41L131.863 460.244V449.058V437.873L128.638 437.167C126.864 436.779 124.823 435.752 124.102 434.886C122.256 432.668 122.042 432.763 115.899 438.546ZM185.134 434.87C180.013 437.093 176.969 441.603 177.014 446.897C177.062 452.39 178.834 455.796 183.101 458.601C196.014 467.087 211.127 449.022 200.223 438.134C195.311 433.23 191.042 432.306 185.134 434.87ZM162.146 462.643C151.559 467.933 148.332 470.031 148.822 471.303C149.177 472.227 149.468 474.858 149.468 477.152C149.468 480.17 150 481.484 151.393 481.908C152.453 482.229 160.899 485.248 170.163 488.617C179.427 491.986 187.473 494.742 188.043 494.742C188.642 494.742 189.079 488.101 189.079 478.973V463.204L185.706 462.531C183.851 462.162 180.935 460.465 179.227 458.76L176.118 455.662L162.146 462.643ZM69.6952 463.982C65.9058 465.556 61.3834 471.205 60.7992 475.1C59.689 482.487 67.1336 490.808 74.6619 490.595C79.2095 490.465 84.2765 487.48 86.1811 483.809C91.9556 472.675 80.87 459.344 69.6952 463.982ZM129.051 463.982C127.808 464.484 125.153 466.754 123.153 469.027C119.887 472.734 119.571 473.671 120.078 478.154C120.884 485.279 126.473 490.354 133.513 490.354C143.93 490.354 150.564 478.927 145.184 470.25C141.577 464.431 134.626 461.731 129.051 463.982ZM146.256 486.938C145.013 488.68 142.007 490.897 139.579 491.866L135.164 493.628V516.453V539.278L139.022 540.669C141.145 541.435 144.434 543.987 146.332 546.343C148.231 548.697 150.203 550.365 150.715 550.049C151.228 549.733 159.946 546.854 170.088 543.652L188.529 537.828V517.844V497.859L168.777 490.816C157.914 486.942 148.911 483.773 148.771 483.773C148.631 483.773 147.499 485.198 146.256 486.938ZM45.7283 494.594C37.9931 499.34 31.4001 503.485 31.0777 503.808C30.7542 504.13 31.027 506.384 31.6839 508.815C32.6114 512.25 32.5323 514.237 31.3263 517.727L29.7749 522.216L39.8317 529.858C45.3641 534.062 54.698 541.209 60.5737 545.74C66.4504 550.272 71.7726 553.98 72.402 553.98C73.1667 553.98 73.5463 543.987 73.5463 523.898V493.815L69.8569 492.602C67.8279 491.934 65.0178 490.168 63.6138 488.677C62.2087 487.186 60.7739 485.967 60.4262 485.967C60.0774 485.967 53.4634 489.85 45.7283 494.594ZM9.84062 501.208C6.05225 503.221 2.15607 508.971 2.07244 512.677C1.98992 516.28 5.60989 522.371 9.09017 524.486C10.9541 525.619 14.3937 526.549 16.7351 526.551C20.2143 526.554 21.7701 525.778 25.2625 522.297C32.2704 515.31 31.1503 506.476 22.5976 501.276C18.2645 498.642 14.7073 498.624 9.84062 501.208ZM191.857 500.017C190.963 500.909 191.175 536.428 192.075 536.428C193.54 536.428 231.431 524.136 232.169 523.421C232.571 523.033 233.066 520.797 233.269 518.453L233.641 514.19L213.038 506.815C201.707 502.759 192.175 499.7 191.857 500.017ZM241.781 508.221C234.493 513.11 233.914 522.828 240.543 528.975C244.365 532.518 248.82 533.563 253.522 532.016C264.35 528.453 266.219 514.121 256.674 507.847C252.319 504.986 246.382 505.134 241.781 508.221ZM127.743 543.718C123.458 545.823 119.758 551.406 119.764 555.755C119.772 562.43 126.764 569.338 133.513 569.338C139.943 569.338 147.253 562.466 147.262 556.413C147.27 551.961 144.189 546.404 140.456 544.135C136.087 541.48 132.535 541.362 127.743 543.718ZM128.012 588.571C118.921 593.067 117.251 604.009 124.627 610.748C129.175 614.905 135.453 615.564 140.753 612.443C144.229 610.396 147.267 605.044 147.267 600.967C147.267 596.825 143.561 591.067 139.497 588.894C134.985 586.482 132.386 586.409 128.012 588.571Z" stroke="#27153E" stroke-width="6" mask="url(#path-1-inside-1_2483_35)"/>
</svg>
