{
	"asset":{
		"generator":"Khronos glTF Blender I/O v3.5.30",
		"version":"2.0"
	},
	"extensionsUsed":[
		"KHR_materials_emissive_strength"
	],
	"scene":0,
	"scenes":[
		{
			"name":"Scene",
			"nodes":[
				0,
				1,
				2
			]
		}
	],
	"nodes":[
		{
			"mesh":0,
			"name":"lining_land",
			"rotation":[
				0,
				-0.266769140958786,
				0,
				0.9637604355812073
			],
			"scale":[
				0.10000001639127731,
				0.10000001639127731,
				0.10000001639127731
			],
			"translation":[
				2.097280740737915,
				1.6945438385009766,
				0.8690099716186523
			]
		},
		{
			"mesh":1,
			"name":"inner_land",
			"rotation":[
				0,
				-0.2667692005634308,
				0,
				0.9637604355812073
			],
			"scale":[
				0.09000001102685928,
				0.09000001102685928,
				0.09000001102685928
			],
			"translation":[
				-0.7058854103088379,
				2.5408902168273926,
				-1.056697964668274
			]
		},
		{
			"mesh":2,
			"name":"Sphere",
			"scale":[
				2.773874044418335,
				2.773874044418335,
				2.773874044418335
			]
		}
	],
	"materials":[
		{
			"doubleSided":true,
			"emissiveFactor":[
				0,
				1,
				1
			],
			"extensions":{
				"KHR_materials_emissive_strength":{
					"emissiveStrength":50
				}
			},
			"name":"Material.001",
			"pbrMetallicRoughness":{
				"baseColorFactor":[
					0,
					1,
					1,
					1
				]
			}
		},
		{
			"doubleSided":true,
			"emissiveFactor":[
				0.5497258502426394,
				1,
				0.536797815642241
			],
			"extensions":{
				"KHR_materials_emissive_strength":{
					"emissiveStrength":17.799878120422363
				}
			},
			"name":"Material.002",
			"pbrMetallicRoughness":{}
		},
		{
			"doubleSided":true,
			"name":"earth-surface",
			"pbrMetallicRoughness":{
				"baseColorTexture":{
					"index":0
				},
				"metallicFactor":0,
				"roughnessFactor":0.5
			}
		}
	],
	"meshes":[
		{
			"name":"Cube.009",
			"primitives":[
				{
					"attributes":{
						"POSITION":0,
						"TEXCOORD_0":1,
						"NORMAL":2
					},
					"indices":3,
					"material":0
				}
			]
		},
		{
			"name":"Cube.010",
			"primitives":[
				{
					"attributes":{
						"POSITION":4,
						"TEXCOORD_0":5,
						"NORMAL":6
					},
					"indices":7,
					"material":1
				}
			]
		},
		{
			"name":"Sphere",
			"primitives":[
				{
					"attributes":{
						"POSITION":8,
						"TEXCOORD_0":9,
						"NORMAL":10
					},
					"indices":11,
					"material":2
				}
			]
		}
	],
	"textures":[
		{
			"sampler":0,
			"source":0
		}
	],
	"images":[
		{
			"mimeType":"image/png",
			"name":"earthsurface",
			"uri":"textures/earthsurface.png"
		}
	],
	"accessors":[
		{
			"bufferView":0,
			"componentType":5126,
			"count":68160,
			"max":[
				5.763530731201172,
				11.498666763305664,
				31.37257194519043
			],
			"min":[
				-45.64522933959961,
				-43.82032012939453,
				-24.474510192871094
			],
			"type":"VEC3"
		},
		{
			"bufferView":1,
			"componentType":5126,
			"count":68160,
			"type":"VEC2"
		},
		{
			"bufferView":2,
			"componentType":5126,
			"count":68160,
			"type":"VEC3"
		},
		{
			"bufferView":3,
			"componentType":5125,
			"count":102240,
			"type":"SCALAR"
		},
		{
			"bufferView":4,
			"componentType":5126,
			"count":185424,
			"max":[
				44.10919189453125,
				3.2474498748779297,
				37.523895263671875
			],
			"min":[
				-17.379850387573242,
				-54.16531753540039,
				-25.157442092895508
			],
			"type":"VEC3"
		},
		{
			"bufferView":5,
			"componentType":5126,
			"count":185424,
			"type":"VEC2"
		},
		{
			"bufferView":6,
			"componentType":5126,
			"count":185424,
			"type":"VEC3"
		},
		{
			"bufferView":7,
			"componentType":5125,
			"count":278136,
			"type":"SCALAR"
		},
		{
			"bufferView":8,
			"componentType":5126,
			"count":559,
			"max":[
				0.9999997019767761,
				1,
				0.9999993443489075
			],
			"min":[
				-0.9999990463256836,
				-1,
				-1
			],
			"type":"VEC3"
		},
		{
			"bufferView":9,
			"componentType":5126,
			"count":559,
			"type":"VEC2"
		},
		{
			"bufferView":10,
			"componentType":5126,
			"count":559,
			"type":"VEC3"
		},
		{
			"bufferView":11,
			"componentType":5123,
			"count":2880,
			"type":"SCALAR"
		}
	],
	"bufferViews":[
		{
			"buffer":0,
			"byteLength":817920,
			"byteOffset":0,
			"target":34962
		},
		{
			"buffer":0,
			"byteLength":545280,
			"byteOffset":817920,
			"target":34962
		},
		{
			"buffer":0,
			"byteLength":817920,
			"byteOffset":1363200,
			"target":34962
		},
		{
			"buffer":0,
			"byteLength":408960,
			"byteOffset":2181120,
			"target":34963
		},
		{
			"buffer":0,
			"byteLength":2225088,
			"byteOffset":2590080,
			"target":34962
		},
		{
			"buffer":0,
			"byteLength":1483392,
			"byteOffset":4815168,
			"target":34962
		},
		{
			"buffer":0,
			"byteLength":2225088,
			"byteOffset":6298560,
			"target":34962
		},
		{
			"buffer":0,
			"byteLength":1112544,
			"byteOffset":8523648,
			"target":34963
		},
		{
			"buffer":0,
			"byteLength":6708,
			"byteOffset":9636192,
			"target":34962
		},
		{
			"buffer":0,
			"byteLength":4472,
			"byteOffset":9642900,
			"target":34962
		},
		{
			"buffer":0,
			"byteLength":6708,
			"byteOffset":9647372,
			"target":34962
		},
		{
			"buffer":0,
			"byteLength":5760,
			"byteOffset":9654080,
			"target":34963
		}
	],
	"samplers":[
		{
			"magFilter":9729,
			"minFilter":9987
		}
	],
	"buffers":[
		{
			"byteLength":9659840,
			"uri":"earth.bin"
		}
	]
}
